<svg xmlns="http://www.w3.org/2000/svg" viewBox="0 0 1200 800" preserveAspectRatio="none" role="img" aria-labelledby="title description">
  <title id="title">神山町の実地形を抽象化したイラスト地図</title>
  <desc id="description">OpenStreetMap由来の神山町境界、国道438号、国道193号、県道20号・21号・43号、鮎喰川、山頂と地区名を簡略化した固定イラスト</desc>
  <metadata>Generated 2026-06-27. Geometry simplified from OpenStreetMap data, © OpenStreetMap contributors, ODbL. This SVG is a static illustration, not a live geographic database.</metadata>
  <defs>
    <filter id="town-shadow" x="-10%" y="-12%" width="120%" height="130%">
      <feDropShadow dx="0" dy="14" stdDeviation="16" flood-color="#173f31" flood-opacity=".2"/>
    </filter>
    <path id="town-shape" d="M885 541.3L882.4 549.7L886.3 567.2L882.5 571.3L859.5 577.7L841.4 576.2L831 591.1L821.2 588.9L819.3 585.8L813.9 585.4L808.1 582.5L796.5 584.4L783.2 591L781.4 597.7L764.4 609.7L757.3 610.6L744 606.1L740.4 607.4L736.2 616.9L730 622.9L709.1 626.6L670.8 628.2L659.5 633.8L640.8 652L623.4 658.5L618.6 662.3L610.2 659.9L600.7 650.6L599.8 647.1L593.1 643.2L588.1 637.4L583 635.5L567.1 623.3L555.7 618.7L547.8 620.3L536.4 629.8L534.9 633.8L518.3 641.8L501 657.1L496 658.4L490.6 656.4L479 656.1L466.9 648.2L462.5 655.2L453 659.4L449.7 668.1L447.7 683.3L436.4 703.9L435.8 709.9L431.7 717.3L432.7 729.4L421.7 733.6L421.5 737.3L413.4 746.4L395 745.4L384.4 722.1L377.3 715.3L377.7 707.4L358.6 704.5L340.9 708L327.2 704.9L322.2 700.9L318.9 700.9L316.9 697.9L293.6 699.1L270.7 695.9L250.7 702.2L244.8 699.7L238.9 700L235 702.8L227.9 700L216.7 699.1L212.4 706.5L184.2 721.7L169.5 726.9L163.1 731.1L153.2 731.9L134.8 740.6L130.2 740.2L120.2 746L111.1 739.9L102.9 739.7L89.7 734.2L84.7 728.6L89.8 720.2L87.9 713.1L90 709.2L86.4 697.8L87 694L90.7 689.5L91.4 682.4L96.4 675.3L105.2 651.3L121 635.7L127.9 633.8L131 623.6L125.9 601.8L127.8 592L123.2 584.3L124.6 576.5L122.4 571.8L125.2 568.3L121.7 564.1L115.1 560.7L115 548.6L123 544.8L127.7 538.9L135.4 538.9L146 529L146.8 523.6L170.8 517.9L175.3 513.8L193.4 510.9L199.1 496.4L197.6 488.9L203.8 467.9L219.6 460.2L237.4 441.4L243.2 439.5L245.1 435.5L243.3 424.1L234.4 415L227.2 411.7L223.2 407.6L232.6 398L234.4 387.9L243.7 381.4L266.6 380L273.6 374.3L300.2 368.8L318 354.6L326.8 350.3L340.9 352.1L344.5 354.5L354.6 354.5L361.7 357.5L368.4 350.5L379.5 344L388 321.2L388.6 314.4L392.2 309.8L399.6 305.8L404.7 307.1L421.4 305.1L433.6 287.6L446.9 294.1L466.1 293.8L477.2 292.7L487 283.4L493.9 282.8L502.7 286.6L514.8 288L523.5 294.5L531.2 295.7L549.6 304.4L542.5 293.1L544.7 289L542 284.5L541.4 277.4L548.4 270.3L557.1 267.6L561.7 260.8L570.1 255.9L568.3 249.2L573.6 244.4L575.3 239L574.4 233.9L589.9 223L594.7 206L592.1 183.9L595.5 174.6L607 171L628.3 173L629.2 169.6L640.6 164.6L646 158L644.8 155.1L654.1 151.7L658.7 137.8L665.1 138.1L679.8 134.5L683.6 144.5L688.8 145L689.8 147.5L703.3 157.5L705.5 165L713.9 170.7L716 174.9L721.6 174.3L727.3 180.2L726.8 183.3L734.3 182.3L742.5 175.9L743.8 172.9L750.7 169.9L751.4 162.9L758.9 155.5L756.9 145.3L759.1 141.6L758.1 136.9L766.5 134.6L774.7 129.3L776.8 125.1L782.6 126.2L784.9 122.2L789.6 123.5L791.8 116.8L818.3 110.4L817.8 105.9L824.7 105.3L827.3 98L833.8 92.7L837.1 93.7L844.6 88.6L849.5 83.6L850.6 77.7L852.6 77.9L856.8 72.8L861 75.3L865.3 75L868.7 78.8L878 81.5L880.3 84.5L894.5 86.4L898.8 76.6L910.6 72.7L914.5 64.3L923.2 62.9L929.1 55.7L943.8 54.2L947.6 58.3L958.7 57.8L964.5 60.1L984.7 59.1L988.4 65.7L997.9 73.5L996.2 84.9L992.2 85.9L986.9 92.1L980.9 94.8L985.7 110.2L990.5 116.9L998 119L998.8 122.6L1010.9 134.4L1011.5 141.6L1008.8 153.2L1009.7 173.1L1007.7 175.2L1006.6 182.9L999.9 190.2L1002.1 199.2L1009.7 205.5L1018.7 207.2L1022.1 211.5L1034 219.6L1036.3 222.2L1037.8 231.9L1040.2 235.2L1047.9 234L1067.4 236.1L1070 232L1070.5 224.9L1078.4 220.8L1086.1 223.6L1103.8 221.6L1115.7 239.5L1117.3 250.8L1111.1 259.1L1110.2 265.1L1100.7 278.6L1091.2 272.3L1081.3 273.8L1068.4 271.8L1059.9 273.9L1057.3 278.9L1043.8 286.5L1044.6 294.3L1049 298L1048.9 307.5L1051.2 314.4L1047.2 325.8L1038.8 329.1L1032.9 336.5L1021.6 337.7L1014.5 343.6L1008.8 340.4L1006.8 335.5L1000.9 333.5L994.2 337.9L985.2 338.2L985.1 348.4L969.7 355.4L966.3 359.6L961.1 360.4L958.2 364.2L956.5 377.7L937.7 382.7L929.7 387.7L928.3 406.4L931 424.4L924.3 433.9L911.8 437L907.7 441L909.8 449.6L906.7 455.9L906.4 468.2L911.1 471.5L906.4 473.3L902.2 481.7L904.8 491.6L898.8 495.1L892.1 495.8L883.7 501.4L884.7 506.2L877.5 517.2L879.2 520L877.3 523.3L879.4 526L879.8 535.8L885 541.3Z"/>
    <clipPath id="town-clip">
      <use href="#town-shape"/>
    </clipPath>
    <pattern id="forest-pattern" width="42" height="42" patternUnits="userSpaceOnUse">
      <path d="m9 31 8-13 8 13h-5v8h-6v-8zm18-8 6-10 6 10h-4v6h-5v-6z" fill="#174f3e" opacity=".2"/>
    </pattern>
    <symbol id="peak" viewBox="0 0 100 74">
      <path d="M3 70 35 15l16 25 18-34 28 64z" fill="#245b49"/>
      <path d="m24 34 11-19 8 12 8 13 8-12 10-22 10 27" fill="#c5d873" opacity=".9"/>
    </symbol>
    <symbol id="tree" viewBox="0 0 28 44">
      <path d="M12 29h5v13h-5z" fill="#815d3c"/>
      <path d="m14 2-12 24h8L5 34h19l-6-8h8z" fill="#39704d"/>
    </symbol>
  </defs>

  <rect width="1200" height="800" fill="#dcead9"/>
  <use href="#town-shape" fill="#fff9e9" opacity=".96"/>
  <g filter="url(#town-shadow)">
    <use href="#town-shape" fill="#4f8f69" stroke="#fff9e9" stroke-width="13"/>
  </g>

  <g clip-path="url(#town-clip)">
    <rect width="1200" height="800" fill="#5a956e"/>
    <rect width="1200" height="800" fill="url(#forest-pattern)"/>
    <path d="M-20 214C110 166 246 151 389 197C517 239 636 150 756 162C908 177 1010 259 1220 211V-20H-20Z" fill="#326f54" opacity=".82"/>
    <path d="M-20 682C120 608 266 605 397 655C522 703 632 622 758 630C906 640 1015 709 1220 650V820H-20Z" fill="#2c674f" opacity=".86"/>
    <path d="M-20 524C136 477 292 505 426 470C548 438 664 414 782 373C925 324 1038 316 1220 350V584C1062 566 946 590 807 588C681 585 582 550 450 590C306 633 160 583 -20 638Z" fill="#8eb276" opacity=".62"/>

    <g class="tributaries" fill="none" stroke-linecap="round" stroke-linejoin="round">
      <path d="M560 379.2L568.3 383.9L569.2 387.9L572.5 388.1L571.7 393.6L573.1 397.1" stroke="#7ac8c3" stroke-width="5" opacity=".54"/>
      <path d="M596.4 508.7L598.6 501.8L606 498.3L607.7 495.3L615.2 491.3L620.7 486.6L621.7 483.8L639.7 476.7L641.7 470.3L644.7 467.1L645.4 461.4L650.4 455.9" stroke="#7ac8c3" stroke-width="5" opacity=".54"/>
      <path d="M541.2 365.4L544.3 367.4L550.8 377L560 379.2" stroke="#7ac8c3" stroke-width="5" opacity=".54"/>
      <path d="M504.3 341.6L511.5 348.5L517.8 348.8L521.8 352.4L525.5 351.6L527.1 353.2L532.1 353.5" stroke="#7ac8c3" stroke-width="5" opacity=".54"/>
      <path d="M879.1 245.9L882.2 245.6L883.7 242.1L883.1 240.2L878.4 237.8L880.7 230.5L879.2 226.5" stroke="#7ac8c3" stroke-width="5" opacity=".54"/>
      <path d="M572.4 585L573.1 577.5L576.8 574.4L576.1 572.2L583 562.4L582.3 556.6L584.2 552.2L588.5 545.8L594.9 544.9" stroke="#7ac8c3" stroke-width="5" opacity=".54"/>
      <path d="M1016.9 297.7L1012 297.5L1006.5 300L1002.8 296.6L993.1 294.5L991.2 290.7L987.1 287.5L982.4 287.7" stroke="#7ac8c3" stroke-width="5" opacity=".54"/>
      <path d="M553.8 509.2L555.7 493.1L554.1 486.3L556.2 485.3L556.4 482.4" stroke="#7ac8c3" stroke-width="5" opacity=".54"/>
      <path d="M749.1 532.2L741.5 532.7L737.8 527L733.9 526.8L732.1 517.7L729.7 515.9L728.7 511.6L724.4 506.5L719.6 504.5L717.9 497.5L718.7 494.9L717.1 491.8L719.6 489L719.2 483.5L717 477.2L718.3 474.5L721.4 472.7L728.4 475.7L737.9 474.5L737.9 470L740.8 466.4L744.5 465.5L751.3 459.8L751.2 453.2L746 446.6L742.6 436.9L738.7 432.3L728.3 433.9L720.1 429.7L711.1 428.2L706.3 425.5" stroke="#7ac8c3" stroke-width="5" opacity=".54"/>
      <path d="M396.3 418.7L404.6 429.8L402.6 433.5L408.2 434.5L410.9 439L413.3 448.7L412.4 455.3L416.2 461.6L420.1 463.7L421.3 469.1L426.7 470.5L428.7 477.4L433.8 479.9L437.1 485.4L446.1 488.7L454.4 494.4L455.2 498.4L460.2 498.2L465.3 500.9L468.9 499.6" stroke="#7ac8c3" stroke-width="5" opacity=".54"/>
      <path d="M823.1 473.5L821.8 470.1L818 466.7L811.3 450.7L815.4 438.1L818.1 435.6L821.8 435.8L821.7 432.8L825.1 432.2L826.5 429.5L830 429.3L834.3 426.7L837.1 422.2L849.3 419.5L861.6 413.7L864.6 407.7" stroke="#7ac8c3" stroke-width="5" opacity=".54"/>
      <path d="M318.5 593.5L320.2 587.4L331 576.8L333.4 569.1L343.8 566.3L343.6 562.2L339.1 558.4L339.2 556.6L344.4 550L352.7 545.9L353.8 541.1L357.7 540.5L354.8 535.6L361.4 532.7L367.7 520.8" stroke="#7ac8c3" stroke-width="5" opacity=".54"/>
      <path d="M579.4 411L584.1 412.5L585.1 417.9L593.9 418.9L594.2 427.7L603.5 433.2L604.9 438.8L609.1 438.7L612 441.6L613.4 446.1L607.2 446.4L607.4 451.1L603 454L605.7 456.6L615.9 459.9" stroke="#7ac8c3" stroke-width="5" opacity=".54"/>
      <path d="M369.8 662.9L365.9 661.2L361.1 661.4L356.9 664.7L346.8 656.2" stroke="#7ac8c3" stroke-width="5" opacity=".54"/>
      <path d="M383.6 695.1L379.1 685.2L374.6 679.3L374.1 670.1L372.3 665.1L369.8 662.9" stroke="#7ac8c3" stroke-width="5" opacity=".54"/>
      <path d="M864.6 407.7L874.7 401L885.4 399L890.8 394.7L893 390.1L901.9 388.3L904.7 382.6L900.3 382" stroke="#7ac8c3" stroke-width="5" opacity=".54"/>
      <path d="M942.5 228.9L940 228.8L938.3 226.5L943.3 215.5L936.4 204.3L932 204.5L922.1 197.5L911.6 192.8L910.3 194.4L911.2 201.3L909.6 202.4L905.9 201.6L900.5 197.3L893.5 198.6" stroke="#7ac8c3" stroke-width="5" opacity=".54"/>
      <path d="M796.4 390.3L788.4 388.6L787.5 386.3L788.8 385L780.6 378.1L776 367.2L771.9 362.9L751.6 362.4" stroke="#7ac8c3" stroke-width="5" opacity=".54"/>
      <path d="M381.1 361.4L386.4 373.4L389.4 376.2L396.8 390L397.4 401.1" stroke="#7ac8c3" stroke-width="5" opacity=".54"/>
      <path d="M982.4 287.7L976.6 289.6L971.6 282.3L968.5 285.6L964.8 282.5" stroke="#7ac8c3" stroke-width="5" opacity=".54"/>
      <path d="M964.8 282.5L965.6 276.1L961 270L958.7 263L957.9 251.8L949.6 242.8L947.6 237.3L942.2 234.9L942.5 228.9" stroke="#7ac8c3" stroke-width="5" opacity=".54"/>
      <path d="M346.8 656.2L345.6 645.4L340.8 641.1L336.6 633L331.1 626.5L326.6 610.8L321.3 605.9L321 597.6L318.5 593.5" stroke="#7ac8c3" stroke-width="5" opacity=".54"/>
      <path d="M900.3 382L895.4 379.9L895.2 376.6L889.9 378.1L873.9 371.7L854.6 368.7L851.1 365.7L854.9 360.6L859.2 359.2L860.5 357.1L856 354.6L854.6 352.1L850.3 350.8L857.8 341.2L852.9 336.6L853.4 334.6L867.4 333.4L867.5 328.5L879.8 322.3L886.7 320.9" stroke="#7ac8c3" stroke-width="5" opacity=".54"/>
      <path d="M751.6 362.4L749.8 354.4L752.7 347.4L751.8 342.6L748.8 338.9L751.9 334.8L750.2 331.6L750.3 328.1" stroke="#7ac8c3" stroke-width="5" opacity=".54"/>
      <path d="M784.9 541.6L780 539.3L777.1 544.4L772.1 543.1L768.3 545.4L763.9 545.6L762.2 540.3L759.9 539.9L759.3 536.3L753.8 534.2" stroke="#7ac8c3" stroke-width="5" opacity=".54"/>
      <path d="M411.8 336.3L415.8 338.8L430.5 342.4L437.6 341.1L444.2 343.8L445.7 346.1L451.2 346L461.2 348.9" stroke="#7ac8c3" stroke-width="5" opacity=".54"/>
      <path d="M461.2 348.9L465.2 347.7L469.3 340.2L473.1 338.8L479.9 341.7L484.4 340.8L489.5 341.7L491.8 339.6" stroke="#7ac8c3" stroke-width="5" opacity=".54"/>
      <path d="M882.5 310.9L877.6 312.9L873.2 311.6L875.5 308.9L873.2 296.9L877.6 287.2L883 283.6L881.1 278.8L884.7 272.8L880.3 268.1L883.6 261.6L880.2 260L879.2 256.6L872.9 251.6L874.8 244L879.1 245.9" stroke="#7ac8c3" stroke-width="5" opacity=".54"/>
    </g>
    <g class="main-river" fill="none" stroke-linecap="round" stroke-linejoin="round">
      <path d="M468.9 499.6L470.7 494.2L476.8 490.9L482 491.2L487.9 496L492.4 496.6" stroke="#eff8ef" stroke-width="28" opacity=".74"/><path d="M468.9 499.6L470.7 494.2L476.8 490.9L482 491.2L487.9 496L492.4 496.6" stroke="#61bcb8" stroke-width="17"/>
      <path d="M506.6 484.5L512.4 481L522.4 479.9" stroke="#eff8ef" stroke-width="28" opacity=".74"/><path d="M506.6 484.5L512.4 481L522.4 479.9" stroke="#61bcb8" stroke-width="17"/>
      <path d="M893.5 198.6L892.6 189.2L890.8 185.6L894 178.1L899.5 174.2L901.6 173.9L904.2 171.1L904.9 169.2L901.3 162.3" stroke="#eff8ef" stroke-width="28" opacity=".74"/><path d="M893.5 198.6L892.6 189.2L890.8 185.6L894 178.1L899.5 174.2L901.6 173.9L904.2 171.1L904.9 169.2L901.3 162.3" stroke="#61bcb8" stroke-width="17"/>
      <path d="M706.3 425.5L705.4 418.1L707.1 411.4L706.6 398L702.6 397.2L695.1 400.2L690.4 399.8L686.2 398.4L685.2 397L685.6 391.3L687.8 387.7L698.6 384.4L704.8 375.9" stroke="#eff8ef" stroke-width="28" opacity=".74"/><path d="M706.3 425.5L705.4 418.1L707.1 411.4L706.6 398L702.6 397.2L695.1 400.2L690.4 399.8L686.2 398.4L685.2 397L685.6 391.3L687.8 387.7L698.6 384.4L704.8 375.9" stroke="#61bcb8" stroke-width="17"/>
      <path d="M150.7 699.6L151.3 695.9L148.4 687.3L148.4 680.1L146.1 676.7L142.5 664.8L143.3 659.3" stroke="#eff8ef" stroke-width="28" opacity=".74"/><path d="M150.7 699.6L151.3 695.9L148.4 687.3L148.4 680.1L146.1 676.7L142.5 664.8L143.3 659.3" stroke="#61bcb8" stroke-width="17"/>
      <path d="M273.5 518L275.5 513.9L282.5 512.4L285.4 509.1L292.7 504.4L298.3 503.4L304.3 500.5L312.3 501.9L318.2 499.5" stroke="#eff8ef" stroke-width="28" opacity=".74"/><path d="M273.5 518L275.5 513.9L282.5 512.4L285.4 509.1L292.7 504.4L298.3 503.4L304.3 500.5L312.3 501.9L318.2 499.5" stroke="#61bcb8" stroke-width="17"/>
      <path d="M879.2 226.5L882.6 217.5L888.3 210.6" stroke="#eff8ef" stroke-width="28" opacity=".74"/><path d="M879.2 226.5L882.6 217.5L888.3 210.6" stroke="#61bcb8" stroke-width="17"/>
      <path d="M783 265.1L780.3 260.3L777.7 258.6L770.3 256.7L767.8 254.9L766.9 252.5L767.8 248.3L770.4 246.5L775.3 245.1L781.7 246" stroke="#eff8ef" stroke-width="28" opacity=".74"/><path d="M783 265.1L780.3 260.3L777.7 258.6L770.3 256.7L767.8 254.9L766.9 252.5L767.8 248.3L770.4 246.5L775.3 245.1L781.7 246" stroke="#61bcb8" stroke-width="17"/>
      <path d="M553.4 479.1L570 479.7L574.5 476.9L593.5 470.6L615.9 459.9" stroke="#eff8ef" stroke-width="28" opacity=".74"/><path d="M553.4 479.1L570 479.7L574.5 476.9L593.5 470.6L615.9 459.9" stroke="#61bcb8" stroke-width="17"/>
      <path d="M173.2 632L174.8 628.7L177.4 626.3L178.5 620.2L173.3 617.1L172.3 615.1L172.9 611.9L173.7 609.5L177.8 606.5L178.9 601.1L178.1 595.8L182.9 586.2L178.9 585.1L178.5 583.9" stroke="#eff8ef" stroke-width="28" opacity=".74"/><path d="M173.2 632L174.8 628.7L177.4 626.3L178.5 620.2L173.3 617.1L172.3 615.1L172.9 611.9L173.7 609.5L177.8 606.5L178.9 601.1L178.1 595.8L182.9 586.2L178.9 585.1L178.5 583.9" stroke="#61bcb8" stroke-width="17"/>
      <path d="M704.8 375.9L703.9 371.4L694.3 372.5L683.1 369.9L679.1 367.1L678.3 363.4L681.7 361L689.7 358.9L693.3 356.8L696.1 348.7L705.8 338.8L713.9 338.8L715.9 342.6L713.3 349.6L714 351.1L718.6 351L725 347.2L730.1 346.7L733.3 344.9L732.6 341.3L727.6 337.5L727.4 336.1L730.6 332.5L738 329.2L750.3 328.1" stroke="#eff8ef" stroke-width="28" opacity=".74"/><path d="M704.8 375.9L703.9 371.4L694.3 372.5L683.1 369.9L679.1 367.1L678.3 363.4L681.7 361L689.7 358.9L693.3 356.8L696.1 348.7L705.8 338.8L713.9 338.8L715.9 342.6L713.3 349.6L714 351.1L718.6 351L725 347.2L730.1 346.7L733.3 344.9L732.6 341.3L727.6 337.5L727.4 336.1L730.6 332.5L738 329.2L750.3 328.1" stroke="#61bcb8" stroke-width="17"/>
      <path d="M1052.1 109.5L1057.6 112.1" stroke="#eff8ef" stroke-width="28" opacity=".74"/><path d="M1052.1 109.5L1057.6 112.1" stroke="#61bcb8" stroke-width="17"/>
      <path d="M368.2 509.6L375.3 516.3L381 513.4L383.1 514.2L385 524.6L390 527.2L403.7 524.8L404.5 522.8L399.1 518.4L401.5 515.1L406.7 517.2L408.6 521.9L411.5 523.3L415.4 522.4L418.6 515.8L420.7 514.2L430.2 517.2L441.1 518.5" stroke="#eff8ef" stroke-width="28" opacity=".74"/><path d="M368.2 509.6L375.3 516.3L381 513.4L383.1 514.2L385 524.6L390 527.2L403.7 524.8L404.5 522.8L399.1 518.4L401.5 515.1L406.7 517.2L408.6 521.9L411.5 523.3L415.4 522.4L418.6 515.8L420.7 514.2L430.2 517.2L441.1 518.5" stroke="#61bcb8" stroke-width="17"/>
      <path d="M781.7 246L795.5 256.1L798.7 256.4L801.9 252.8L804.6 237.1L806.5 234.2L812.1 232.7L826 236.5L838.7 235.5" stroke="#eff8ef" stroke-width="28" opacity=".74"/><path d="M781.7 246L795.5 256.1L798.7 256.4L801.9 252.8L804.6 237.1L806.5 234.2L812.1 232.7L826 236.5L838.7 235.5" stroke="#61bcb8" stroke-width="17"/>
      <path d="M363 511.1L368.2 509.6" stroke="#eff8ef" stroke-width="28" opacity=".74"/><path d="M363 511.1L368.2 509.6" stroke="#61bcb8" stroke-width="17"/>
      <path d="M769.2 282.6L774.6 275.2L782.4 270.1L783 265.1" stroke="#eff8ef" stroke-width="28" opacity=".74"/><path d="M769.2 282.6L774.6 275.2L782.4 270.1L783 265.1" stroke="#61bcb8" stroke-width="17"/>
      <path d="M492.4 496.6L499 493.9L506.6 484.5" stroke="#eff8ef" stroke-width="28" opacity=".74"/><path d="M492.4 496.6L499 493.9L506.6 484.5" stroke="#61bcb8" stroke-width="17"/>
      <path d="M355.1 512.8L359.8 512.8L363 511.1" stroke="#eff8ef" stroke-width="28" opacity=".74"/><path d="M355.1 512.8L359.8 512.8L363 511.1" stroke="#61bcb8" stroke-width="17"/>
      <path d="M766.6 286.7L769.2 282.6" stroke="#eff8ef" stroke-width="28" opacity=".74"/><path d="M766.6 286.7L769.2 282.6" stroke="#61bcb8" stroke-width="17"/>
      <path d="M838.7 235.5L848.5 230.7L858.9 222.7L860.9 219.3L867.6 215.5L870.9 216.5L872.6 225.7L875 227.1L879.2 226.5" stroke="#eff8ef" stroke-width="28" opacity=".74"/><path d="M838.7 235.5L848.5 230.7L858.9 222.7L860.9 219.3L867.6 215.5L870.9 216.5L872.6 225.7L875 227.1L879.2 226.5" stroke="#61bcb8" stroke-width="17"/>
      <path d="M522.4 479.9L535.8 477.7L553.4 479.1" stroke="#eff8ef" stroke-width="28" opacity=".74"/><path d="M522.4 479.9L535.8 477.7L553.4 479.1" stroke="#61bcb8" stroke-width="17"/>
      <path d="M178.5 583.9L183.1 579L192.2 577L197.7 572.9" stroke="#eff8ef" stroke-width="28" opacity=".74"/><path d="M178.5 583.9L183.1 579L192.2 577L197.7 572.9" stroke="#61bcb8" stroke-width="17"/>
      <path d="M143.3 659.3L145.5 657.5L157.1 654.2L162 643.6L166.8 639.2L168.8 633.2L173.2 632" stroke="#eff8ef" stroke-width="28" opacity=".74"/><path d="M143.3 659.3L145.5 657.5L157.1 654.2L162 643.6L166.8 639.2L168.8 633.2L173.2 632" stroke="#61bcb8" stroke-width="17"/>
      <path d="M441.1 518.5L447.4 519.9L453.7 517.6L457.2 513.6L457.2 509.7L455.3 505.8L455.5 502.7L467.3 501.1L468.9 499.6" stroke="#eff8ef" stroke-width="28" opacity=".74"/><path d="M441.1 518.5L447.4 519.9L453.7 517.6L457.2 513.6L457.2 509.7L455.3 505.8L455.5 502.7L467.3 501.1L468.9 499.6" stroke="#61bcb8" stroke-width="17"/>
      <path d="M650.4 455.9L660.5 455.1" stroke="#eff8ef" stroke-width="28" opacity=".74"/><path d="M650.4 455.9L660.5 455.1" stroke="#61bcb8" stroke-width="17"/>
      <path d="M888.3 210.6L892.8 206.5L894.1 203.2L893.5 198.6" stroke="#eff8ef" stroke-width="28" opacity=".74"/><path d="M888.3 210.6L892.8 206.5L894.1 203.2L893.5 198.6" stroke="#61bcb8" stroke-width="17"/>
      <path d="M318.2 499.5L324.7 500.1L333.6 496.2L335.1 498L336.1 503.7L344 503.6L346.9 509L355.1 512.8" stroke="#eff8ef" stroke-width="28" opacity=".74"/><path d="M318.2 499.5L324.7 500.1L333.6 496.2L335.1 498L336.1 503.7L344 503.6L346.9 509L355.1 512.8" stroke="#61bcb8" stroke-width="17"/>
      <path d="M750.3 328.1L751.8 324.6L746.9 314.1L746.3 305.5L760.5 297.4L766.6 286.7" stroke="#eff8ef" stroke-width="28" opacity=".74"/><path d="M750.3 328.1L751.8 324.6L746.9 314.1L746.3 305.5L760.5 297.4L766.6 286.7" stroke="#61bcb8" stroke-width="17"/>
      <path d="M615.9 459.9L632.3 456.6L650.4 455.9" stroke="#eff8ef" stroke-width="28" opacity=".74"/><path d="M615.9 459.9L632.3 456.6L650.4 455.9" stroke="#61bcb8" stroke-width="17"/>
      <path d="M660.5 455.1L670.2 456.2L677.9 465L684.2 468L692 467.1L700.6 461.2L710.1 457.7L711.9 455.9L712.2 453.4L710.8 450.4L710 441.9L705.6 433.2L706.3 425.5" stroke="#eff8ef" stroke-width="28" opacity=".74"/><path d="M660.5 455.1L670.2 456.2L677.9 465L684.2 468L692 467.1L700.6 461.2L710.1 457.7L711.9 455.9L712.2 453.4L710.8 450.4L710 441.9L705.6 433.2L706.3 425.5" stroke="#61bcb8" stroke-width="17"/>
      <path d="M197.7 572.9L202.6 573.2L205.8 568.3L214.4 568.2L217.5 563.4L223.1 563.8L229.5 560.9L233.6 554.9L239.8 554.7L245.3 550.6L259.9 548.8L263 543L266.3 539.6L265.9 536.2L269.1 535.3L269.2 531.1L271.2 526.3L275.8 522.8L273.5 518" stroke="#eff8ef" stroke-width="28" opacity=".74"/><path d="M197.7 572.9L202.6 573.2L205.8 568.3L214.4 568.2L217.5 563.4L223.1 563.8L229.5 560.9L233.6 554.9L239.8 554.7L245.3 550.6L259.9 548.8L263 543L266.3 539.6L265.9 536.2L269.1 535.3L269.2 531.1L271.2 526.3L275.8 522.8L273.5 518" stroke="#61bcb8" stroke-width="17"/>
      <path d="M901.3 162.3L897.7 158.9L897.5 157.1L898.5 155.4L905.5 152.7L913.8 154.1L917.7 156.4L921.1 160.7L922.6 166.6L927.4 170.3L934.4 169.5L945.2 164.4L956.9 164.7L961.1 163.4L972.9 147.4L977.4 144.1L979.2 139.7L994.4 134.4L994.1 132.5L992.5 132.2L991.8 125.3L982.9 105.3" stroke="#eff8ef" stroke-width="28" opacity=".74"/><path d="M901.3 162.3L897.7 158.9L897.5 157.1L898.5 155.4L905.5 152.7L913.8 154.1L917.7 156.4L921.1 160.7L922.6 166.6L927.4 170.3L934.4 169.5L945.2 164.4L956.9 164.7L961.1 163.4L972.9 147.4L977.4 144.1L979.2 139.7L994.4 134.4L994.1 132.5L992.5 132.2L991.8 125.3L982.9 105.3" stroke="#61bcb8" stroke-width="17"/>
      <path d="M982.9 105.3L980.9 101.2L985.4 99.1L1001 100.4L1016.3 103.4L1024.2 103.2" stroke="#eff8ef" stroke-width="28" opacity=".74"/><path d="M982.9 105.3L980.9 101.2L985.4 99.1L1001 100.4L1016.3 103.4L1024.2 103.2" stroke="#61bcb8" stroke-width="17"/>
      <path d="M1057.6 112.1L1077.4 111.1L1096 113.6L1099.8 119L1105.7 122.2L1118.1 134.3L1132.6 143.8" stroke="#eff8ef" stroke-width="28" opacity=".74"/><path d="M1057.6 112.1L1077.4 111.1L1096 113.6L1099.8 119L1105.7 122.2L1118.1 134.3L1132.6 143.8" stroke="#61bcb8" stroke-width="17"/>
      <path d="M1024.2 103.2L1033.4 101.6L1052.1 109.5" stroke="#eff8ef" stroke-width="28" opacity=".74"/><path d="M1024.2 103.2L1033.4 101.6L1052.1 109.5" stroke="#61bcb8" stroke-width="17"/>
      <path d="M1132.6 143.8L1141.1 142.2" stroke="#eff8ef" stroke-width="28" opacity=".74"/><path d="M1132.6 143.8L1141.1 142.2" stroke="#61bcb8" stroke-width="17"/>
      <path d="M987.2 99.5L990.7 102L1004 104.9L1018.8 105.7L1024.2 103.2" stroke="#eff8ef" stroke-width="28" opacity=".74"/><path d="M987.2 99.5L990.7 102L1004 104.9L1018.8 105.7L1024.2 103.2" stroke="#61bcb8" stroke-width="17"/>
      <path d="M1141.1 142.2L1157.6 135.4L1162.1 135.6L1172.8 130.7L1184.3 122.8" stroke="#eff8ef" stroke-width="28" opacity=".74"/><path d="M1141.1 142.2L1157.6 135.4L1162.1 135.6L1172.8 130.7L1184.3 122.8" stroke="#61bcb8" stroke-width="17"/>
    </g>

    <g class="roads" fill="none" stroke-linecap="round" stroke-linejoin="round">
      <path d="M741.4 435.9L731.4 440.6L723.2 441.6L716.8 449" stroke="#285447" stroke-width="21" opacity=".5"/>
      <path d="M742.6 435.5L741.4 435.9" stroke="#285447" stroke-width="21" opacity=".5"/>
      <path d="M841.6 374.9L838.3 376.2L836.3 378" stroke="#285447" stroke-width="21" opacity=".5"/>
      <path d="M844.1 374.9L841.6 374.9" stroke="#285447" stroke-width="21" opacity=".5"/>
      <path d="M894.3 379.3L889.3 378.5L871.4 372.7L855.6 375.1L844.1 374.9" stroke="#285447" stroke-width="21" opacity=".5"/>
      <path d="M895.7 379.4L894.3 379.3" stroke="#285447" stroke-width="21" opacity=".5"/>
      <path d="M907.1 378.7L895.7 379.4" stroke="#285447" stroke-width="21" opacity=".5"/>
      <path d="M972.6 380.9L952 375.4L946.2 374.7L932.4 375.3L907.1 378.7" stroke="#285447" stroke-width="21" opacity=".5"/>
      <path d="M975.8 381.7L972.6 380.9" stroke="#285447" stroke-width="21" opacity=".5"/>
      <path d="M977.2 382L975.8 381.7" stroke="#285447" stroke-width="21" opacity=".5"/>
      <path d="M979.9 382.4L977.2 382" stroke="#285447" stroke-width="21" opacity=".5"/>
      <path d="M984.1 382.8L979.9 382.4" stroke="#285447" stroke-width="21" opacity=".5"/>
      <path d="M985.6 382.8L984.1 382.8" stroke="#285447" stroke-width="21" opacity=".5"/>
      <path d="M986.8 382.8L985.6 382.8" stroke="#285447" stroke-width="21" opacity=".5"/>
      <path d="M1031.1 367.5L1024.1 372.1L986.8 382.8" stroke="#285447" stroke-width="21" opacity=".5"/>
      <path d="M1031.8 366.9L1031.1 367.5" stroke="#285447" stroke-width="21" opacity=".5"/>
      <path d="M1065 368.1L1060.4 367.8L1054.8 364L1052 363.2L1037.7 364L1031.8 366.9" stroke="#285447" stroke-width="21" opacity=".5"/>
      <path d="M1066.1 367.8L1065 368.1" stroke="#285447" stroke-width="21" opacity=".5"/>
      <path d="M1238.6 235L1236.1 235.8L1234.4 239.2L1234 250.2L1232 255L1231.1 260.1L1228.7 263.3L1227.9 274.4L1224 277.3L1218.8 279.6L1215.9 283.9L1215.8 286.4L1217.7 289.2L1220.1 297.5L1224.7 305.9L1224.8 312.8L1224 314.6L1221.2 316.1L1205.2 319L1197.4 321.3L1195.2 325.2L1193.7 326.3L1185 326.5L1176.6 328.4" stroke="#285447" stroke-width="21" opacity=".5"/>
      <path d="M1057.8 361.5L1052 358.2L1049.3 355L1036.3 353.9L1030.5 355.8L1025.9 359.4L1024 359.6L1025.1 361.2L1024.2 364.3L1019.3 368.2L1016.3 368L1014.8 366.1L1012.3 365.3" stroke="#285447" stroke-width="21" opacity=".5"/>
      <path d="M1066.6 367.7L1064.1 363.7L1057.8 361.5" stroke="#285447" stroke-width="21" opacity=".5"/>
      <path d="M657.7 462L646.1 461" stroke="#285447" stroke-width="21" opacity=".5"/>
      <path d="M658.9 462.1L657.7 462" stroke="#285447" stroke-width="21" opacity=".5"/>
      <path d="M645 460.9L637.6 460.8L631.3 463.1" stroke="#285447" stroke-width="21" opacity=".5"/>
      <path d="M646.1 461L645 460.9" stroke="#285447" stroke-width="21" opacity=".5"/>
      <path d="M522.1 480.9L511.6 483.6L502.6 492.2L497.9 498.6L492.9 501" stroke="#285447" stroke-width="21" opacity=".5"/>
      <path d="M522.8 480.8L522.1 480.9" stroke="#285447" stroke-width="21" opacity=".5"/>
      <path d="M492.9 501L490 501.7" stroke="#285447" stroke-width="21" opacity=".5"/>
      <path d="M490 501.7L485.1 502.5L472.3 501.3L462.7 503.6L458 507.7" stroke="#285447" stroke-width="21" opacity=".5"/>
      <path d="M456.1 510.5L450.9 517.1L445.9 518.8" stroke="#285447" stroke-width="21" opacity=".5"/>
      <path d="M458 507.7L456.1 510.5" stroke="#285447" stroke-width="21" opacity=".5"/>
      <path d="M411.8 521L409.6 519.3" stroke="#285447" stroke-width="21" opacity=".5"/>
      <path d="M395.1 524.1L387.4 524.1L385.5 520.7L385.3 515.9L384 513.2L382.1 512.3L379.7 512.8" stroke="#285447" stroke-width="21" opacity=".5"/>
      <path d="M330.8 495.4L333.2 494.7L335.1 495.8L336.9 503.4L344.3 502.9L345.4 503.8L347.1 507.9L351.1 509.3L353.3 511.4L357 511.9" stroke="#285447" stroke-width="21" opacity=".5"/>
      <path d="M330.8 495.4L325.5 499.3L318.7 498.5" stroke="#285447" stroke-width="21" opacity=".5"/>
      <path d="M318.7 498.5L317.9 498.5" stroke="#285447" stroke-width="21" opacity=".5"/>
      <path d="M317.9 498.5L312.3 501.3L303.8 499.9L299.3 501.7L293.9 502.3L289.6 504.6L282.1 511.9L275.2 513L272.7 517.8" stroke="#285447" stroke-width="21" opacity=".5"/>
      <path d="M244.1 549.8L239.3 553.9L232.9 553.5L228.9 560.4L222.1 562.6L216.7 562.8L211.7 566.8L203.2 568.3L201.8 571L197.9 572.1" stroke="#285447" stroke-width="21" opacity=".5"/>
      <path d="M249.6 549.5L244.1 549.8" stroke="#285447" stroke-width="21" opacity=".5"/>
      <path d="M122.4 587.8L120.8 587.7L119.3 584.3L115.2 581.7L111.3 577.7L111.5 572.6L107.2 573.1L104.2 571.6L101.8 571.5L99.4 569.6L97.6 570L93.3 573.2L83.3 575.8L79.8 578.3L87.2 575.7L88.1 576.1L79.1 580.5L76.1 581.1L84.7 581.8L88.6 580.2L90.2 578.5L93.8 579.4L98.2 577.5" stroke="#285447" stroke-width="21" opacity=".5"/>
      <path d="M131.7 585.5L122.4 587.8" stroke="#285447" stroke-width="21" opacity=".5"/>
      <path d="M174.4 610L173.5 609.2" stroke="#285447" stroke-width="21" opacity=".5"/>
      <path d="M173.5 609.2L176.1 606.2L176.4 601.8L172.8 595.2L174.5 601.4L174.3 604.5L166.1 607.8L169.5 614.2L168.6 621.3L172 623.1L173.9 625.2L173.8 626.2L170.1 629.6L163.7 630.6L163.5 629.3L169.9 628.2L170.7 626.3L162.8 622.6L156.8 618.6L160.6 614.4L149 607.9L149.5 605.5L148.3 603.6L149.2 601L148.5 600L142.8 599.3L138.2 600.1L133.7 598.2L133.4 594.8L136.1 591.5L134.2 589.3L134.5 585.7L131.7 585.5" stroke="#285447" stroke-width="21" opacity=".5"/>
      <path d="M177.6 599.1L179.3 600" stroke="#285447" stroke-width="21" opacity=".5"/>
      <path d="M179.3 600L179.9 601L178.8 607.9L177.9 609L174.4 610" stroke="#285447" stroke-width="21" opacity=".5"/>
      <path d="M197.9 572.1L196.9 572.3" stroke="#285447" stroke-width="21" opacity=".5"/>
      <path d="M196.9 572.3L194.8 573.2L192.3 576.5L181.8 579L177.8 583.4" stroke="#285447" stroke-width="21" opacity=".5"/>
      <path d="M64.3 641.1L64.1 641.2" stroke="#285447" stroke-width="21" opacity=".5"/>
      <path d="M64.1 641.2L62 641L55 634.9L46.8 630.5L45.6 631.5L42.5 638.8L40.8 638.4L38.4 636.2L36.1 636.2L34.2 638.2L31.3 636.5" stroke="#285447" stroke-width="21" opacity=".5"/>
      <path d="M31.3 636.5L27.4 633.7L19.1 632.2L18.1 633L17.7 635L15.5 637.1L13.7 642.2L14.2 644.4" stroke="#285447" stroke-width="21" opacity=".5"/>
      <path d="M3.2 659.5L0.5 659.5" stroke="#285447" stroke-width="21" opacity=".5"/>
      <path d="M0.5 659.5L-2.3 658.9L-3.6 659.8L-2.7 665.9L-5.5 671.1L-13.9 675.4L-13.1 678L-9.1 681.2L-8.3 683L-11.4 692.3L-14.4 694.7L-21.9 698.2L-34.2 702.2" stroke="#285447" stroke-width="21" opacity=".5"/>
      <path d="M675.1 465.7L670.6 463.3L658.9 462.1" stroke="#285447" stroke-width="21" opacity=".5"/>
      <path d="M558.9 482.3L541.2 478.5L535.2 478.6L522.8 480.8" stroke="#285447" stroke-width="21" opacity=".5"/>
      <path d="M559.2 482.4L558.9 482.3" stroke="#285447" stroke-width="21" opacity=".5"/>
      <path d="M631.3 463.1L624.9 464.9L613.2 466.6L602.6 469.7L595.1 473L576.6 477.7L570.8 480.5" stroke="#285447" stroke-width="21" opacity=".5"/>
      <path d="M716.8 449L714.2 451.2L712.9 457.1L707.7 465.3L686.9 471.6L682.5 471.1L677.9 468.7L675.1 465.7" stroke="#285447" stroke-width="21" opacity=".5"/>
      <path d="M570.8 480.5L566.5 482.7L559.2 482.4" stroke="#285447" stroke-width="21" opacity=".5"/>
      <path d="M491 498.9L493.2 499" stroke="#285447" stroke-width="21" opacity=".5"/>
      <path d="M482.8 502.3L486.2 499.1L491 498.9" stroke="#285447" stroke-width="21" opacity=".5"/>
      <path d="M493.2 499L496.4 497.2L499.4 496.6" stroke="#285447" stroke-width="21" opacity=".5"/>
      <path d="M376.2 515L374.2 514.3L373.7 511L370.7 509.3" stroke="#285447" stroke-width="21" opacity=".5"/>
      <path d="M445.9 518.8L437.3 516.6L431.4 516.7L424.2 513.8L421 513.4L418.5 514.3L414.4 519.6L410.9 521.4" stroke="#285447" stroke-width="21" opacity=".5"/>
      <path d="M409.6 519.3L405.4 513.7L403.3 512.7L400.3 513.5L397.8 516.3L397.3 519.6L401.8 523.7" stroke="#285447" stroke-width="21" opacity=".5"/>
      <path d="M370.5 509.3L366.1 508.9L357 511.9" stroke="#285447" stroke-width="21" opacity=".5"/>
      <path d="M370.7 509.3L370.5 509.3" stroke="#285447" stroke-width="21" opacity=".5"/>
      <path d="M177.8 583.4L177.6 584.2" stroke="#285447" stroke-width="21" opacity=".5"/>
      <path d="M272.7 517.8L272.7 518.2" stroke="#285447" stroke-width="21" opacity=".5"/>
      <path d="M177.6 584.2L177.8 585.3L180.9 587L179.1 590.2L179.5 591.7L177.1 597.7L177.6 599.1" stroke="#285447" stroke-width="21" opacity=".5"/>
      <path d="M272.7 518.2L274.9 522.9L271.2 525.2L269.3 527.8L268 530.5L268.7 534.2L265.4 535.3L265.1 538.8L259.9 545.5L259.4 547.6L257.5 548.6L254 548.2L249.6 549.5" stroke="#285447" stroke-width="21" opacity=".5"/>
      <path d="M1066.6 367.7L1066.1 367.8" stroke="#285447" stroke-width="21" opacity=".5"/>
      <path d="M836.3 378L833.4 379.9L819.5 381.6L806.7 386.8L802.1 389.6L798.1 390L795.1 391.4L793.4 393.4L793.3 398.8L789.7 406.9L786.7 409.2L777.1 413.4" stroke="#285447" stroke-width="21" opacity=".5"/>
      <path d="M15.6 646.8L14.3 655L12.9 657.5L9.4 659.3L3.2 659.5" stroke="#285447" stroke-width="21" opacity=".5"/>
      <path d="M95.6 606.2L94.1 607.7L86.2 605.7L83.6 608.2L78.9 609.7L76.9 607.6L75.6 607.4L74.5 609L71.7 609L69.6 611.2L65.9 617.1L65.8 620.9L74.8 625.9L75.1 626.8L73.7 628.5L64 631.9L60.7 632.2L61.1 634L65.3 638.3L65.4 640.2L64.3 641.1" stroke="#285447" stroke-width="21" opacity=".5"/>
      <path d="M95.6 606L95.6 606.2" stroke="#285447" stroke-width="21" opacity=".5"/>
      <path d="M98.3 577.6L97.6 580.4L99.9 582.9L100.3 585.2L104.2 586.4L104.6 587.8L103.8 588.9L96.6 591.7L97.7 595.1L100.6 595.8L102.8 599.5L101.6 603L95.1 603.4L95.6 606" stroke="#285447" stroke-width="21" opacity=".5"/>
      <path d="M98.2 577.5L98.3 577.6" stroke="#285447" stroke-width="21" opacity=".5"/>
      <path d="M405.9 523.3L402.3 523.6" stroke="#285447" stroke-width="21" opacity=".5"/>
      <path d="M410.9 521.4L407.2 523" stroke="#285447" stroke-width="21" opacity=".5"/>
      <path d="M407.2 523L406.6 523.2" stroke="#285447" stroke-width="21" opacity=".5"/>
      <path d="M402.3 523.6L401.8 523.7" stroke="#285447" stroke-width="21" opacity=".5"/>
      <path d="M406.6 523.2L405.9 523.3" stroke="#285447" stroke-width="21" opacity=".5"/>
      <path d="M401.8 523.7L400.8 524.6L395.1 524.1" stroke="#285447" stroke-width="21" opacity=".5"/>
      <path d="M14.2 644.4L15.6 646.8" stroke="#285447" stroke-width="21" opacity=".5"/>
      <path d="M1166.8 332.9L1157.4 335.8L1153.4 340L1151 345.7L1146.7 348.6L1133.7 348.2L1126.5 350.3L1115.2 350.9L1106 349.4L1100.2 349.9L1089.1 354.2L1084.1 359.9L1079.1 363.4L1066.6 367.7" stroke="#285447" stroke-width="21" opacity=".5"/>
      <path d="M1167.4 332.6L1166.8 332.9" stroke="#285447" stroke-width="21" opacity=".5"/>
      <path d="M1176.3 328.5L1167.4 332.6" stroke="#285447" stroke-width="21" opacity=".5"/>
      <path d="M1176.6 328.4L1176.3 328.5" stroke="#285447" stroke-width="21" opacity=".5"/>
      <path d="M776.4 413.7L763.6 419.3L761.7 421.2L759.1 426.3L749.5 432.9L742.6 435.5" stroke="#285447" stroke-width="21" opacity=".5"/>
      <path d="M777.1 413.4L776.4 413.7" stroke="#285447" stroke-width="21" opacity=".5"/>
      <path d="M379.4 513L376.2 515" stroke="#285447" stroke-width="21" opacity=".5"/>
      <path d="M379.7 512.8L379.4 513" stroke="#285447" stroke-width="21" opacity=".5"/>
      <path d="M357 511.9L357.1 512.6" stroke="#285447" stroke-width="21" opacity=".5"/>
      <path d="M330.8 495.4L333.2 494.7L335.1 495.8L336.9 503.4L344.3 502.9L345.4 503.8L347.1 507.9L351.1 509.3L353.3 511.4L357 511.9" stroke="#285447" stroke-width="21" opacity=".5"/>
      <path d="M166.4 54.5L166.1 57.3" stroke="#285447" stroke-width="21" opacity=".5"/>
      <path d="M-30.7 22.2L-24 23L-5.9 30.7L12.7 30.6L27.4 34.6" stroke="#285447" stroke-width="21" opacity=".5"/>
      <path d="M295.2 261.7L299.3 263.7L307.2 263.9L309.4 264.9" stroke="#285447" stroke-width="21" opacity=".5"/>
      <path d="M320.9 405.3L321.4 409.8" stroke="#285447" stroke-width="21" opacity=".5"/>
      <path d="M342.7 565L340 566.5L333.7 567.4L332.1 568.7L329.3 575.5L320.6 584.5L318.3 588.9L317.3 593.7" stroke="#285447" stroke-width="21" opacity=".5"/>
      <path d="M364 527.2L359.1 533.7" stroke="#285447" stroke-width="21" opacity=".5"/>
      <path d="M318.3 789L319.4 793.2L322.4 795.3L321.3 799.7" stroke="#285447" stroke-width="21" opacity=".5"/>
      <path d="M166.1 57.3L165.8 60.4" stroke="#285447" stroke-width="21" opacity=".5"/>
      <path d="M165.8 60.4L164.8 90.6L166.4 103.1L164.5 108.1L159.2 113.2L158.2 115.2L158.3 127.7L159.6 130.2L170 136.4L174 141.5L178.7 145.7L185.8 148.6" stroke="#285447" stroke-width="21" opacity=".5"/>
      <path d="M185.8 148.6L207 156" stroke="#285447" stroke-width="21" opacity=".5"/>
      <path d="M207 156L209.2 158.2L212.4 165.4L221.4 169L228.5 168.5L237.6 169.7L245.5 167.5" stroke="#285447" stroke-width="21" opacity=".5"/>
      <path d="M247.3 167.6L250.5 167.8L252.9 169.4L254.1 173.6L253.5 175.8" stroke="#285447" stroke-width="21" opacity=".5"/>
      <path d="M253 177.9L260.2 189.7L260.2 191.7L257.9 195.7" stroke="#285447" stroke-width="21" opacity=".5"/>
      <path d="M253.5 175.8L252.9 177.5" stroke="#285447" stroke-width="21" opacity=".5"/>
      <path d="M252.9 177.5L253 177.9" stroke="#285447" stroke-width="21" opacity=".5"/>
      <path d="M257.9 195.7L257.9 198.1" stroke="#285447" stroke-width="21" opacity=".5"/>
      <path d="M257.9 198.1L259.4 201.5" stroke="#285447" stroke-width="21" opacity=".5"/>
      <path d="M259.4 201.5L260.3 203" stroke="#285447" stroke-width="21" opacity=".5"/>
      <path d="M260.3 203L261.6 204.3" stroke="#285447" stroke-width="21" opacity=".5"/>
      <path d="M261.6 204.3L263.6 205.3" stroke="#285447" stroke-width="21" opacity=".5"/>
      <path d="M263.6 205.3L271.2 208.4L272.9 211.5" stroke="#285447" stroke-width="21" opacity=".5"/>
      <path d="M272.9 211.5L272.7 213.3" stroke="#285447" stroke-width="21" opacity=".5"/>
      <path d="M272.7 213.3L271.9 219.5L268.8 224.5L270 226.5L274.6 229.1L276.4 231.5L277.8 239.2" stroke="#285447" stroke-width="21" opacity=".5"/>
      <path d="M245.5 167.5L246.9 167.5" stroke="#285447" stroke-width="21" opacity=".5"/>
      <path d="M246.9 167.5L247.3 167.6" stroke="#285447" stroke-width="21" opacity=".5"/>
      <path d="M282.4 251.7L282.4 252.1" stroke="#285447" stroke-width="21" opacity=".5"/>
      <path d="M282.4 252.1L284.1 257.8L288.5 261.2" stroke="#285447" stroke-width="21" opacity=".5"/>
      <path d="M288.5 261.2L292.5 261.8" stroke="#285447" stroke-width="21" opacity=".5"/>
      <path d="M292.5 261.8L295.2 261.7" stroke="#285447" stroke-width="21" opacity=".5"/>
      <path d="M309.4 264.9L311.7 268.7L314 270.7" stroke="#285447" stroke-width="21" opacity=".5"/>
      <path d="M314 270.7L318.8 273.9" stroke="#285447" stroke-width="21" opacity=".5"/>
      <path d="M318.8 273.9L320.9 278.9L322.2 279.1L318.7 272L318.8 269.1" stroke="#285447" stroke-width="21" opacity=".5"/>
      <path d="M318.8 269.1L318.5 267.7L314.5 266.8L314.4 265.9L319.9 267L320.1 270.7L327.4 275.6" stroke="#285447" stroke-width="21" opacity=".5"/>
      <path d="M327.4 275.6L328.2 275.9" stroke="#285447" stroke-width="21" opacity=".5"/>
      <path d="M328.2 275.9L329 276.8L327.4 280.6L329.7 280.6" stroke="#285447" stroke-width="21" opacity=".5"/>
      <path d="M329.7 280.6L330.4 280.6" stroke="#285447" stroke-width="21" opacity=".5"/>
      <path d="M334.2 282.6L331.6 284L331.7 286.1L339.3 297.3L341.6 302.7L345.1 305.8L344.8 308.1L342.6 310L344.7 315.6" stroke="#285447" stroke-width="21" opacity=".5"/>
      <path d="M344.7 315.6L344.2 315.9" stroke="#285447" stroke-width="21" opacity=".5"/>
      <path d="M344.2 315.9L340.5 314.4L339.4 316.3L339.3 319.6" stroke="#285447" stroke-width="21" opacity=".5"/>
      <path d="M339.3 319.6L339.1 319.6" stroke="#285447" stroke-width="21" opacity=".5"/>
      <path d="M339.1 319.6L337 317.2L335 316.9L335.6 315.1L333.4 313.2L332.3 310.8L329.8 310.8L328.1 308.1L323.3 304.8L321.8 302.2L320.1 302.2L318.4 304.2L315.5 305L313.6 307.1L309.1 308.3L302.5 304.9L302.4 305.8L305.4 307.6L308.4 311.3L319.3 309.4L321.8 309.8L322.7 311.5L321.1 314.1L321.5 320.7L323.8 322.8L327.1 331.5L330.4 333L335.4 337.5L345.2 337.2L355.5 335.3L363.3 335.5L363.9 336.2L363.2 337.1L356 338L349.8 341.2L339.5 343.6L336.3 345.2L323.9 342.8L322.5 344.5L322.4 348.4L317.2 352.5L316.7 354.3L317.5 357.7L315.3 360.1L317.1 361.7L316.9 363.2L310.7 366.4L313.1 371.6L307.5 379.7L304 378.6L299.4 379.2L296.7 383.5L292.9 382.4L290.5 383.2L289.2 384.7L285.7 383.9L284.3 385.5L278.9 384.3L280.8 389.9L276.2 390.3L274.1 392.6L269.6 392.6L269.8 395.2L265.5 398.9L266.4 399.2L268.8 396.5L277.8 393.7L283.9 394.1L287.2 393.4L289.5 394.5L299.5 395.7L300.9 395.4L303.2 393.1L305 396.3L308.9 396.4L312.2 398.7L314.2 397.7L317.3 400L320.3 399.4L322.3 395.9L324.9 394.5L323.1 399.2L323.4 401.7L318.4 403L318.6 404.1L320.5 404.8" stroke="#285447" stroke-width="21" opacity=".5"/>
      <path d="M321 411.7L321.6 413.8" stroke="#285447" stroke-width="21" opacity=".5"/>
      <path d="M321.4 409.8L321 411.7" stroke="#285447" stroke-width="21" opacity=".5"/>
      <path d="M322.4 415L324.2 416.5" stroke="#285447" stroke-width="21" opacity=".5"/>
      <path d="M321.6 413.8L322.4 415" stroke="#285447" stroke-width="21" opacity=".5"/>
      <path d="M324.2 416.5L324.8 417.4" stroke="#285447" stroke-width="21" opacity=".5"/>
      <path d="M324.8 417.4L326 419.6" stroke="#285447" stroke-width="21" opacity=".5"/>
      <path d="M326 419.6L326.8 421.2" stroke="#285447" stroke-width="21" opacity=".5"/>
      <path d="M326.8 421.2L327.2 423L326.3 424.5L321.4 426.4L319.3 429.4" stroke="#285447" stroke-width="21" opacity=".5"/>
      <path d="M319.3 429.4L319 430.4" stroke="#285447" stroke-width="21" opacity=".5"/>
      <path d="M319 430.4L318.9 445.2L321.5 450.1L321.2 462.7" stroke="#285447" stroke-width="21" opacity=".5"/>
      <path d="M321.2 462.7L321.6 464.1" stroke="#285447" stroke-width="21" opacity=".5"/>
      <path d="M321.6 464.1L323.5 468.4L323.1 474.3" stroke="#285447" stroke-width="21" opacity=".5"/>
      <path d="M322.6 475.4L321.9 476.7" stroke="#285447" stroke-width="21" opacity=".5"/>
      <path d="M323.1 474.3L322.6 475.4" stroke="#285447" stroke-width="21" opacity=".5"/>
      <path d="M321.9 476.7L321.5 477.9" stroke="#285447" stroke-width="21" opacity=".5"/>
      <path d="M321.5 477.9L320.5 482.1L320.6 488.4" stroke="#285447" stroke-width="21" opacity=".5"/>
      <path d="M320.6 488.4L320.6 489.3" stroke="#285447" stroke-width="21" opacity=".5"/>
      <path d="M320.6 489.3L318.6 494.9L319.6 497.2L323.9 498.6L330.8 495.4" stroke="#285447" stroke-width="21" opacity=".5"/>
      <path d="M357.1 512.6L357.2 513.2" stroke="#285447" stroke-width="21" opacity=".5"/>
      <path d="M317.3 593.7L317.5 594.3" stroke="#285447" stroke-width="21" opacity=".5"/>
      <path d="M354.7 540.3L354.2 541.7" stroke="#285447" stroke-width="21" opacity=".5"/>
      <path d="M359.1 533.7L357.8 535.2" stroke="#285447" stroke-width="21" opacity=".5"/>
      <path d="M289.1 609.2L288.8 609.5" stroke="#285447" stroke-width="21" opacity=".5"/>
      <path d="M352.7 544.9L343.1 549.8L337.9 555.2L337.9 558.5L342.7 563.1L342.7 565" stroke="#285447" stroke-width="21" opacity=".5"/>
      <path d="M356.1 537.3L355.5 538.2" stroke="#285447" stroke-width="21" opacity=".5"/>
      <path d="M354.2 541.7L353.5 543.6" stroke="#285447" stroke-width="21" opacity=".5"/>
      <path d="M353.5 543.6L352.7 544.9" stroke="#285447" stroke-width="21" opacity=".5"/>
      <path d="M357.2 513.2L361.4 518.3L365.3 519L366.7 520.2L366.9 521.6L364 527.2" stroke="#285447" stroke-width="21" opacity=".5"/>
      <path d="M355.5 538.2L354.7 540.3" stroke="#285447" stroke-width="21" opacity=".5"/>
      <path d="M357.8 535.2L356.1 537.3" stroke="#285447" stroke-width="21" opacity=".5"/>
      <path d="M317.5 594.3L319.9 598.1L319.3 601.2L318.4 602.2L314.1 603.9L311.3 602L302.8 604.2L295.4 604.1L291.2 605.8L289.1 609.2" stroke="#285447" stroke-width="21" opacity=".5"/>
      <path d="M288.8 609.5L283 612.5L280.2 615.8L274.7 618.8L271.5 622.4L262.4 621.7L256.1 620.2L253.2 620.8L251.6 622.7" stroke="#285447" stroke-width="21" opacity=".5"/>
      <path d="M321.3 799.7L321.4 800.4" stroke="#285447" stroke-width="21" opacity=".5"/>
      <path d="M320.5 404.8L320.9 405.3" stroke="#285447" stroke-width="21" opacity=".5"/>
      <path d="M117.5 53.1L147 57.4L153.5 57.3" stroke="#285447" stroke-width="21" opacity=".5"/>
      <path d="M112.7 52.4L117.5 53.1" stroke="#285447" stroke-width="21" opacity=".5"/>
      <path d="M251.6 622.7L318.3 789" stroke="#285447" stroke-width="21" opacity=".5"/>
      <path d="M153.5 57.3L154.1 57.2" stroke="#285447" stroke-width="21" opacity=".5"/>
      <path d="M154.1 57.2L166.4 54.5" stroke="#285447" stroke-width="21" opacity=".5"/>
      <path d="M280.2 245.8L282.4 251.7" stroke="#285447" stroke-width="21" opacity=".5"/>
      <path d="M279.1 243.7L280.2 245.8" stroke="#285447" stroke-width="21" opacity=".5"/>
      <path d="M278.1 240.8L279.1 243.7" stroke="#285447" stroke-width="21" opacity=".5"/>
      <path d="M277.8 239.2L278.1 240.8" stroke="#285447" stroke-width="21" opacity=".5"/>
      <path d="M330.4 280.6L334.1 282.5" stroke="#285447" stroke-width="21" opacity=".5"/>
      <path d="M334.1 282.5L334.2 282.6" stroke="#285447" stroke-width="21" opacity=".5"/>
      <path d="M61.9 41.5L88.7 48.7" stroke="#285447" stroke-width="21" opacity=".5"/>
      <path d="M27.4 34.6L61.9 41.5" stroke="#285447" stroke-width="21" opacity=".5"/>
      <path d="M89.5 48.8L112.7 52.4" stroke="#285447" stroke-width="21" opacity=".5"/>
      <path d="M88.7 48.7L89.5 48.8" stroke="#285447" stroke-width="21" opacity=".5"/>
      <path d="M741.4 435.9L731.4 440.6L723.2 441.6L716.8 449" stroke="#f0c25d" stroke-width="13"/>
      <path d="M742.6 435.5L741.4 435.9" stroke="#f0c25d" stroke-width="13"/>
      <path d="M841.6 374.9L838.3 376.2L836.3 378" stroke="#f0c25d" stroke-width="13"/>
      <path d="M844.1 374.9L841.6 374.9" stroke="#f0c25d" stroke-width="13"/>
      <path d="M894.3 379.3L889.3 378.5L871.4 372.7L855.6 375.1L844.1 374.9" stroke="#f0c25d" stroke-width="13"/>
      <path d="M895.7 379.4L894.3 379.3" stroke="#f0c25d" stroke-width="13"/>
      <path d="M907.1 378.7L895.7 379.4" stroke="#f0c25d" stroke-width="13"/>
      <path d="M972.6 380.9L952 375.4L946.2 374.7L932.4 375.3L907.1 378.7" stroke="#f0c25d" stroke-width="13"/>
      <path d="M975.8 381.7L972.6 380.9" stroke="#f0c25d" stroke-width="13"/>
      <path d="M977.2 382L975.8 381.7" stroke="#f0c25d" stroke-width="13"/>
      <path d="M979.9 382.4L977.2 382" stroke="#f0c25d" stroke-width="13"/>
      <path d="M984.1 382.8L979.9 382.4" stroke="#f0c25d" stroke-width="13"/>
      <path d="M985.6 382.8L984.1 382.8" stroke="#f0c25d" stroke-width="13"/>
      <path d="M986.8 382.8L985.6 382.8" stroke="#f0c25d" stroke-width="13"/>
      <path d="M1031.1 367.5L1024.1 372.1L986.8 382.8" stroke="#f0c25d" stroke-width="13"/>
      <path d="M1031.8 366.9L1031.1 367.5" stroke="#f0c25d" stroke-width="13"/>
      <path d="M1065 368.1L1060.4 367.8L1054.8 364L1052 363.2L1037.7 364L1031.8 366.9" stroke="#f0c25d" stroke-width="13"/>
      <path d="M1066.1 367.8L1065 368.1" stroke="#f0c25d" stroke-width="13"/>
      <path d="M1238.6 235L1236.1 235.8L1234.4 239.2L1234 250.2L1232 255L1231.1 260.1L1228.7 263.3L1227.9 274.4L1224 277.3L1218.8 279.6L1215.9 283.9L1215.8 286.4L1217.7 289.2L1220.1 297.5L1224.7 305.9L1224.8 312.8L1224 314.6L1221.2 316.1L1205.2 319L1197.4 321.3L1195.2 325.2L1193.7 326.3L1185 326.5L1176.6 328.4" stroke="#f0c25d" stroke-width="13"/>
      <path d="M1057.8 361.5L1052 358.2L1049.3 355L1036.3 353.9L1030.5 355.8L1025.9 359.4L1024 359.6L1025.1 361.2L1024.2 364.3L1019.3 368.2L1016.3 368L1014.8 366.1L1012.3 365.3" stroke="#f0c25d" stroke-width="13"/>
      <path d="M1066.6 367.7L1064.1 363.7L1057.8 361.5" stroke="#f0c25d" stroke-width="13"/>
      <path d="M657.7 462L646.1 461" stroke="#f0c25d" stroke-width="13"/>
      <path d="M658.9 462.1L657.7 462" stroke="#f0c25d" stroke-width="13"/>
      <path d="M645 460.9L637.6 460.8L631.3 463.1" stroke="#f0c25d" stroke-width="13"/>
      <path d="M646.1 461L645 460.9" stroke="#f0c25d" stroke-width="13"/>
      <path d="M522.1 480.9L511.6 483.6L502.6 492.2L497.9 498.6L492.9 501" stroke="#f0c25d" stroke-width="13"/>
      <path d="M522.8 480.8L522.1 480.9" stroke="#f0c25d" stroke-width="13"/>
      <path d="M492.9 501L490 501.7" stroke="#f0c25d" stroke-width="13"/>
      <path d="M490 501.7L485.1 502.5L472.3 501.3L462.7 503.6L458 507.7" stroke="#f0c25d" stroke-width="13"/>
      <path d="M456.1 510.5L450.9 517.1L445.9 518.8" stroke="#f0c25d" stroke-width="13"/>
      <path d="M458 507.7L456.1 510.5" stroke="#f0c25d" stroke-width="13"/>
      <path d="M411.8 521L409.6 519.3" stroke="#f0c25d" stroke-width="13"/>
      <path d="M395.1 524.1L387.4 524.1L385.5 520.7L385.3 515.9L384 513.2L382.1 512.3L379.7 512.8" stroke="#f0c25d" stroke-width="13"/>
      <path d="M330.8 495.4L333.2 494.7L335.1 495.8L336.9 503.4L344.3 502.9L345.4 503.8L347.1 507.9L351.1 509.3L353.3 511.4L357 511.9" stroke="#f0c25d" stroke-width="13"/>
      <path d="M330.8 495.4L325.5 499.3L318.7 498.5" stroke="#f0c25d" stroke-width="13"/>
      <path d="M318.7 498.5L317.9 498.5" stroke="#f0c25d" stroke-width="13"/>
      <path d="M317.9 498.5L312.3 501.3L303.8 499.9L299.3 501.7L293.9 502.3L289.6 504.6L282.1 511.9L275.2 513L272.7 517.8" stroke="#f0c25d" stroke-width="13"/>
      <path d="M244.1 549.8L239.3 553.9L232.9 553.5L228.9 560.4L222.1 562.6L216.7 562.8L211.7 566.8L203.2 568.3L201.8 571L197.9 572.1" stroke="#f0c25d" stroke-width="13"/>
      <path d="M249.6 549.5L244.1 549.8" stroke="#f0c25d" stroke-width="13"/>
      <path d="M122.4 587.8L120.8 587.7L119.3 584.3L115.2 581.7L111.3 577.7L111.5 572.6L107.2 573.1L104.2 571.6L101.8 571.5L99.4 569.6L97.6 570L93.3 573.2L83.3 575.8L79.8 578.3L87.2 575.7L88.1 576.1L79.1 580.5L76.1 581.1L84.7 581.8L88.6 580.2L90.2 578.5L93.8 579.4L98.2 577.5" stroke="#f0c25d" stroke-width="13"/>
      <path d="M131.7 585.5L122.4 587.8" stroke="#f0c25d" stroke-width="13"/>
      <path d="M174.4 610L173.5 609.2" stroke="#f0c25d" stroke-width="13"/>
      <path d="M173.5 609.2L176.1 606.2L176.4 601.8L172.8 595.2L174.5 601.4L174.3 604.5L166.1 607.8L169.5 614.2L168.6 621.3L172 623.1L173.9 625.2L173.8 626.2L170.1 629.6L163.7 630.6L163.5 629.3L169.9 628.2L170.7 626.3L162.8 622.6L156.8 618.6L160.6 614.4L149 607.9L149.5 605.5L148.3 603.6L149.2 601L148.5 600L142.8 599.3L138.2 600.1L133.7 598.2L133.4 594.8L136.1 591.5L134.2 589.3L134.5 585.7L131.7 585.5" stroke="#f0c25d" stroke-width="13"/>
      <path d="M177.6 599.1L179.3 600" stroke="#f0c25d" stroke-width="13"/>
      <path d="M179.3 600L179.9 601L178.8 607.9L177.9 609L174.4 610" stroke="#f0c25d" stroke-width="13"/>
      <path d="M197.9 572.1L196.9 572.3" stroke="#f0c25d" stroke-width="13"/>
      <path d="M196.9 572.3L194.8 573.2L192.3 576.5L181.8 579L177.8 583.4" stroke="#f0c25d" stroke-width="13"/>
      <path d="M64.3 641.1L64.1 641.2" stroke="#f0c25d" stroke-width="13"/>
      <path d="M64.1 641.2L62 641L55 634.9L46.8 630.5L45.6 631.5L42.5 638.8L40.8 638.4L38.4 636.2L36.1 636.2L34.2 638.2L31.3 636.5" stroke="#f0c25d" stroke-width="13"/>
      <path d="M31.3 636.5L27.4 633.7L19.1 632.2L18.1 633L17.7 635L15.5 637.1L13.7 642.2L14.2 644.4" stroke="#f0c25d" stroke-width="13"/>
      <path d="M3.2 659.5L0.5 659.5" stroke="#f0c25d" stroke-width="13"/>
      <path d="M0.5 659.5L-2.3 658.9L-3.6 659.8L-2.7 665.9L-5.5 671.1L-13.9 675.4L-13.1 678L-9.1 681.2L-8.3 683L-11.4 692.3L-14.4 694.7L-21.9 698.2L-34.2 702.2" stroke="#f0c25d" stroke-width="13"/>
      <path d="M675.1 465.7L670.6 463.3L658.9 462.1" stroke="#f0c25d" stroke-width="13"/>
      <path d="M558.9 482.3L541.2 478.5L535.2 478.6L522.8 480.8" stroke="#f0c25d" stroke-width="13"/>
      <path d="M559.2 482.4L558.9 482.3" stroke="#f0c25d" stroke-width="13"/>
      <path d="M631.3 463.1L624.9 464.9L613.2 466.6L602.6 469.7L595.1 473L576.6 477.7L570.8 480.5" stroke="#f0c25d" stroke-width="13"/>
      <path d="M716.8 449L714.2 451.2L712.9 457.1L707.7 465.3L686.9 471.6L682.5 471.1L677.9 468.7L675.1 465.7" stroke="#f0c25d" stroke-width="13"/>
      <path d="M570.8 480.5L566.5 482.7L559.2 482.4" stroke="#f0c25d" stroke-width="13"/>
      <path d="M491 498.9L493.2 499" stroke="#f0c25d" stroke-width="13"/>
      <path d="M482.8 502.3L486.2 499.1L491 498.9" stroke="#f0c25d" stroke-width="13"/>
      <path d="M493.2 499L496.4 497.2L499.4 496.6" stroke="#f0c25d" stroke-width="13"/>
      <path d="M376.2 515L374.2 514.3L373.7 511L370.7 509.3" stroke="#f0c25d" stroke-width="13"/>
      <path d="M445.9 518.8L437.3 516.6L431.4 516.7L424.2 513.8L421 513.4L418.5 514.3L414.4 519.6L410.9 521.4" stroke="#f0c25d" stroke-width="13"/>
      <path d="M409.6 519.3L405.4 513.7L403.3 512.7L400.3 513.5L397.8 516.3L397.3 519.6L401.8 523.7" stroke="#f0c25d" stroke-width="13"/>
      <path d="M370.5 509.3L366.1 508.9L357 511.9" stroke="#f0c25d" stroke-width="13"/>
      <path d="M370.7 509.3L370.5 509.3" stroke="#f0c25d" stroke-width="13"/>
      <path d="M177.8 583.4L177.6 584.2" stroke="#f0c25d" stroke-width="13"/>
      <path d="M272.7 517.8L272.7 518.2" stroke="#f0c25d" stroke-width="13"/>
      <path d="M177.6 584.2L177.8 585.3L180.9 587L179.1 590.2L179.5 591.7L177.1 597.7L177.6 599.1" stroke="#f0c25d" stroke-width="13"/>
      <path d="M272.7 518.2L274.9 522.9L271.2 525.2L269.3 527.8L268 530.5L268.7 534.2L265.4 535.3L265.1 538.8L259.9 545.5L259.4 547.6L257.5 548.6L254 548.2L249.6 549.5" stroke="#f0c25d" stroke-width="13"/>
      <path d="M1066.6 367.7L1066.1 367.8" stroke="#f0c25d" stroke-width="13"/>
      <path d="M836.3 378L833.4 379.9L819.5 381.6L806.7 386.8L802.1 389.6L798.1 390L795.1 391.4L793.4 393.4L793.3 398.8L789.7 406.9L786.7 409.2L777.1 413.4" stroke="#f0c25d" stroke-width="13"/>
      <path d="M15.6 646.8L14.3 655L12.9 657.5L9.4 659.3L3.2 659.5" stroke="#f0c25d" stroke-width="13"/>
      <path d="M95.6 606.2L94.1 607.7L86.2 605.7L83.6 608.2L78.9 609.7L76.9 607.6L75.6 607.4L74.5 609L71.7 609L69.6 611.2L65.9 617.1L65.8 620.9L74.8 625.9L75.1 626.8L73.7 628.5L64 631.9L60.7 632.2L61.1 634L65.3 638.3L65.4 640.2L64.3 641.1" stroke="#f0c25d" stroke-width="13"/>
      <path d="M95.6 606L95.6 606.2" stroke="#f0c25d" stroke-width="13"/>
      <path d="M98.3 577.6L97.6 580.4L99.9 582.9L100.3 585.2L104.2 586.4L104.6 587.8L103.8 588.9L96.6 591.7L97.7 595.1L100.6 595.8L102.8 599.5L101.6 603L95.1 603.4L95.6 606" stroke="#f0c25d" stroke-width="13"/>
      <path d="M98.2 577.5L98.3 577.6" stroke="#f0c25d" stroke-width="13"/>
      <path d="M405.9 523.3L402.3 523.6" stroke="#f0c25d" stroke-width="13"/>
      <path d="M410.9 521.4L407.2 523" stroke="#f0c25d" stroke-width="13"/>
      <path d="M407.2 523L406.6 523.2" stroke="#f0c25d" stroke-width="13"/>
      <path d="M402.3 523.6L401.8 523.7" stroke="#f0c25d" stroke-width="13"/>
      <path d="M406.6 523.2L405.9 523.3" stroke="#f0c25d" stroke-width="13"/>
      <path d="M401.8 523.7L400.8 524.6L395.1 524.1" stroke="#f0c25d" stroke-width="13"/>
      <path d="M14.2 644.4L15.6 646.8" stroke="#f0c25d" stroke-width="13"/>
      <path d="M1166.8 332.9L1157.4 335.8L1153.4 340L1151 345.7L1146.7 348.6L1133.7 348.2L1126.5 350.3L1115.2 350.9L1106 349.4L1100.2 349.9L1089.1 354.2L1084.1 359.9L1079.1 363.4L1066.6 367.7" stroke="#f0c25d" stroke-width="13"/>
      <path d="M1167.4 332.6L1166.8 332.9" stroke="#f0c25d" stroke-width="13"/>
      <path d="M1176.3 328.5L1167.4 332.6" stroke="#f0c25d" stroke-width="13"/>
      <path d="M1176.6 328.4L1176.3 328.5" stroke="#f0c25d" stroke-width="13"/>
      <path d="M776.4 413.7L763.6 419.3L761.7 421.2L759.1 426.3L749.5 432.9L742.6 435.5" stroke="#f0c25d" stroke-width="13"/>
      <path d="M777.1 413.4L776.4 413.7" stroke="#f0c25d" stroke-width="13"/>
      <path d="M379.4 513L376.2 515" stroke="#f0c25d" stroke-width="13"/>
      <path d="M379.7 512.8L379.4 513" stroke="#f0c25d" stroke-width="13"/>
      <path d="M357 511.9L357.1 512.6" stroke="#f0c25d" stroke-width="13"/>
      <path d="M330.8 495.4L333.2 494.7L335.1 495.8L336.9 503.4L344.3 502.9L345.4 503.8L347.1 507.9L351.1 509.3L353.3 511.4L357 511.9" stroke="#f0c25d" stroke-width="13"/>
      <path d="M166.4 54.5L166.1 57.3" stroke="#f0c25d" stroke-width="13"/>
      <path d="M-30.7 22.2L-24 23L-5.9 30.7L12.7 30.6L27.4 34.6" stroke="#f0c25d" stroke-width="13"/>
      <path d="M295.2 261.7L299.3 263.7L307.2 263.9L309.4 264.9" stroke="#f0c25d" stroke-width="13"/>
      <path d="M320.9 405.3L321.4 409.8" stroke="#f0c25d" stroke-width="13"/>
      <path d="M342.7 565L340 566.5L333.7 567.4L332.1 568.7L329.3 575.5L320.6 584.5L318.3 588.9L317.3 593.7" stroke="#f0c25d" stroke-width="13"/>
      <path d="M364 527.2L359.1 533.7" stroke="#f0c25d" stroke-width="13"/>
      <path d="M318.3 789L319.4 793.2L322.4 795.3L321.3 799.7" stroke="#f0c25d" stroke-width="13"/>
      <path d="M166.1 57.3L165.8 60.4" stroke="#f0c25d" stroke-width="13"/>
      <path d="M165.8 60.4L164.8 90.6L166.4 103.1L164.5 108.1L159.2 113.2L158.2 115.2L158.3 127.7L159.6 130.2L170 136.4L174 141.5L178.7 145.7L185.8 148.6" stroke="#f0c25d" stroke-width="13"/>
      <path d="M185.8 148.6L207 156" stroke="#f0c25d" stroke-width="13"/>
      <path d="M207 156L209.2 158.2L212.4 165.4L221.4 169L228.5 168.5L237.6 169.7L245.5 167.5" stroke="#f0c25d" stroke-width="13"/>
      <path d="M247.3 167.6L250.5 167.8L252.9 169.4L254.1 173.6L253.5 175.8" stroke="#f0c25d" stroke-width="13"/>
      <path d="M253 177.9L260.2 189.7L260.2 191.7L257.9 195.7" stroke="#f0c25d" stroke-width="13"/>
      <path d="M253.5 175.8L252.9 177.5" stroke="#f0c25d" stroke-width="13"/>
      <path d="M252.9 177.5L253 177.9" stroke="#f0c25d" stroke-width="13"/>
      <path d="M257.9 195.7L257.9 198.1" stroke="#f0c25d" stroke-width="13"/>
      <path d="M257.9 198.1L259.4 201.5" stroke="#f0c25d" stroke-width="13"/>
      <path d="M259.4 201.5L260.3 203" stroke="#f0c25d" stroke-width="13"/>
      <path d="M260.3 203L261.6 204.3" stroke="#f0c25d" stroke-width="13"/>
      <path d="M261.6 204.3L263.6 205.3" stroke="#f0c25d" stroke-width="13"/>
      <path d="M263.6 205.3L271.2 208.4L272.9 211.5" stroke="#f0c25d" stroke-width="13"/>
      <path d="M272.9 211.5L272.7 213.3" stroke="#f0c25d" stroke-width="13"/>
      <path d="M272.7 213.3L271.9 219.5L268.8 224.5L270 226.5L274.6 229.1L276.4 231.5L277.8 239.2" stroke="#f0c25d" stroke-width="13"/>
      <path d="M245.5 167.5L246.9 167.5" stroke="#f0c25d" stroke-width="13"/>
      <path d="M246.9 167.5L247.3 167.6" stroke="#f0c25d" stroke-width="13"/>
      <path d="M282.4 251.7L282.4 252.1" stroke="#f0c25d" stroke-width="13"/>
      <path d="M282.4 252.1L284.1 257.8L288.5 261.2" stroke="#f0c25d" stroke-width="13"/>
      <path d="M288.5 261.2L292.5 261.8" stroke="#f0c25d" stroke-width="13"/>
      <path d="M292.5 261.8L295.2 261.7" stroke="#f0c25d" stroke-width="13"/>
      <path d="M309.4 264.9L311.7 268.7L314 270.7" stroke="#f0c25d" stroke-width="13"/>
      <path d="M314 270.7L318.8 273.9" stroke="#f0c25d" stroke-width="13"/>
      <path d="M318.8 273.9L320.9 278.9L322.2 279.1L318.7 272L318.8 269.1" stroke="#f0c25d" stroke-width="13"/>
      <path d="M318.8 269.1L318.5 267.7L314.5 266.8L314.4 265.9L319.9 267L320.1 270.7L327.4 275.6" stroke="#f0c25d" stroke-width="13"/>
      <path d="M327.4 275.6L328.2 275.9" stroke="#f0c25d" stroke-width="13"/>
      <path d="M328.2 275.9L329 276.8L327.4 280.6L329.7 280.6" stroke="#f0c25d" stroke-width="13"/>
      <path d="M329.7 280.6L330.4 280.6" stroke="#f0c25d" stroke-width="13"/>
      <path d="M334.2 282.6L331.6 284L331.7 286.1L339.3 297.3L341.6 302.7L345.1 305.8L344.8 308.1L342.6 310L344.7 315.6" stroke="#f0c25d" stroke-width="13"/>
      <path d="M344.7 315.6L344.2 315.9" stroke="#f0c25d" stroke-width="13"/>
      <path d="M344.2 315.9L340.5 314.4L339.4 316.3L339.3 319.6" stroke="#f0c25d" stroke-width="13"/>
      <path d="M339.3 319.6L339.1 319.6" stroke="#f0c25d" stroke-width="13"/>
      <path d="M339.1 319.6L337 317.2L335 316.9L335.6 315.1L333.4 313.2L332.3 310.8L329.8 310.8L328.1 308.1L323.3 304.8L321.8 302.2L320.1 302.2L318.4 304.2L315.5 305L313.6 307.1L309.1 308.3L302.5 304.9L302.4 305.8L305.4 307.6L308.4 311.3L319.3 309.4L321.8 309.8L322.7 311.5L321.1 314.1L321.5 320.7L323.8 322.8L327.1 331.5L330.4 333L335.4 337.5L345.2 337.2L355.5 335.3L363.3 335.5L363.9 336.2L363.2 337.1L356 338L349.8 341.2L339.5 343.6L336.3 345.2L323.9 342.8L322.5 344.5L322.4 348.4L317.2 352.5L316.7 354.3L317.5 357.7L315.3 360.1L317.1 361.7L316.9 363.2L310.7 366.4L313.1 371.6L307.5 379.7L304 378.6L299.4 379.2L296.7 383.5L292.9 382.4L290.5 383.2L289.2 384.7L285.7 383.9L284.3 385.5L278.9 384.3L280.8 389.9L276.2 390.3L274.1 392.6L269.6 392.6L269.8 395.2L265.5 398.9L266.4 399.2L268.8 396.5L277.8 393.7L283.9 394.1L287.2 393.4L289.5 394.5L299.5 395.7L300.9 395.4L303.2 393.1L305 396.3L308.9 396.4L312.2 398.7L314.2 397.7L317.3 400L320.3 399.4L322.3 395.9L324.9 394.5L323.1 399.2L323.4 401.7L318.4 403L318.6 404.1L320.5 404.8" stroke="#f0c25d" stroke-width="13"/>
      <path d="M321 411.7L321.6 413.8" stroke="#f0c25d" stroke-width="13"/>
      <path d="M321.4 409.8L321 411.7" stroke="#f0c25d" stroke-width="13"/>
      <path d="M322.4 415L324.2 416.5" stroke="#f0c25d" stroke-width="13"/>
      <path d="M321.6 413.8L322.4 415" stroke="#f0c25d" stroke-width="13"/>
      <path d="M324.2 416.5L324.8 417.4" stroke="#f0c25d" stroke-width="13"/>
      <path d="M324.8 417.4L326 419.6" stroke="#f0c25d" stroke-width="13"/>
      <path d="M326 419.6L326.8 421.2" stroke="#f0c25d" stroke-width="13"/>
      <path d="M326.8 421.2L327.2 423L326.3 424.5L321.4 426.4L319.3 429.4" stroke="#f0c25d" stroke-width="13"/>
      <path d="M319.3 429.4L319 430.4" stroke="#f0c25d" stroke-width="13"/>
      <path d="M319 430.4L318.9 445.2L321.5 450.1L321.2 462.7" stroke="#f0c25d" stroke-width="13"/>
      <path d="M321.2 462.7L321.6 464.1" stroke="#f0c25d" stroke-width="13"/>
      <path d="M321.6 464.1L323.5 468.4L323.1 474.3" stroke="#f0c25d" stroke-width="13"/>
      <path d="M322.6 475.4L321.9 476.7" stroke="#f0c25d" stroke-width="13"/>
      <path d="M323.1 474.3L322.6 475.4" stroke="#f0c25d" stroke-width="13"/>
      <path d="M321.9 476.7L321.5 477.9" stroke="#f0c25d" stroke-width="13"/>
      <path d="M321.5 477.9L320.5 482.1L320.6 488.4" stroke="#f0c25d" stroke-width="13"/>
      <path d="M320.6 488.4L320.6 489.3" stroke="#f0c25d" stroke-width="13"/>
      <path d="M320.6 489.3L318.6 494.9L319.6 497.2L323.9 498.6L330.8 495.4" stroke="#f0c25d" stroke-width="13"/>
      <path d="M357.1 512.6L357.2 513.2" stroke="#f0c25d" stroke-width="13"/>
      <path d="M317.3 593.7L317.5 594.3" stroke="#f0c25d" stroke-width="13"/>
      <path d="M354.7 540.3L354.2 541.7" stroke="#f0c25d" stroke-width="13"/>
      <path d="M359.1 533.7L357.8 535.2" stroke="#f0c25d" stroke-width="13"/>
      <path d="M289.1 609.2L288.8 609.5" stroke="#f0c25d" stroke-width="13"/>
      <path d="M352.7 544.9L343.1 549.8L337.9 555.2L337.9 558.5L342.7 563.1L342.7 565" stroke="#f0c25d" stroke-width="13"/>
      <path d="M356.1 537.3L355.5 538.2" stroke="#f0c25d" stroke-width="13"/>
      <path d="M354.2 541.7L353.5 543.6" stroke="#f0c25d" stroke-width="13"/>
      <path d="M353.5 543.6L352.7 544.9" stroke="#f0c25d" stroke-width="13"/>
      <path d="M357.2 513.2L361.4 518.3L365.3 519L366.7 520.2L366.9 521.6L364 527.2" stroke="#f0c25d" stroke-width="13"/>
      <path d="M355.5 538.2L354.7 540.3" stroke="#f0c25d" stroke-width="13"/>
      <path d="M357.8 535.2L356.1 537.3" stroke="#f0c25d" stroke-width="13"/>
      <path d="M317.5 594.3L319.9 598.1L319.3 601.2L318.4 602.2L314.1 603.9L311.3 602L302.8 604.2L295.4 604.1L291.2 605.8L289.1 609.2" stroke="#f0c25d" stroke-width="13"/>
      <path d="M288.8 609.5L283 612.5L280.2 615.8L274.7 618.8L271.5 622.4L262.4 621.7L256.1 620.2L253.2 620.8L251.6 622.7" stroke="#f0c25d" stroke-width="13"/>
      <path d="M321.3 799.7L321.4 800.4" stroke="#f0c25d" stroke-width="13"/>
      <path d="M320.5 404.8L320.9 405.3" stroke="#f0c25d" stroke-width="13"/>
      <path d="M117.5 53.1L147 57.4L153.5 57.3" stroke="#f0c25d" stroke-width="13"/>
      <path d="M112.7 52.4L117.5 53.1" stroke="#f0c25d" stroke-width="13"/>
      <path d="M251.6 622.7L318.3 789" stroke="#f0c25d" stroke-width="13"/>
      <path d="M153.5 57.3L154.1 57.2" stroke="#f0c25d" stroke-width="13"/>
      <path d="M154.1 57.2L166.4 54.5" stroke="#f0c25d" stroke-width="13"/>
      <path d="M280.2 245.8L282.4 251.7" stroke="#f0c25d" stroke-width="13"/>
      <path d="M279.1 243.7L280.2 245.8" stroke="#f0c25d" stroke-width="13"/>
      <path d="M278.1 240.8L279.1 243.7" stroke="#f0c25d" stroke-width="13"/>
      <path d="M277.8 239.2L278.1 240.8" stroke="#f0c25d" stroke-width="13"/>
      <path d="M330.4 280.6L334.1 282.5" stroke="#f0c25d" stroke-width="13"/>
      <path d="M334.1 282.5L334.2 282.6" stroke="#f0c25d" stroke-width="13"/>
      <path d="M61.9 41.5L88.7 48.7" stroke="#f0c25d" stroke-width="13"/>
      <path d="M27.4 34.6L61.9 41.5" stroke="#f0c25d" stroke-width="13"/>
      <path d="M89.5 48.8L112.7 52.4" stroke="#f0c25d" stroke-width="13"/>
      <path d="M88.7 48.7L89.5 48.8" stroke="#f0c25d" stroke-width="13"/>
      <path d="M1024.4 38.1L1023.7 43L1020.6 47.2" stroke="#315f50" stroke-width="15" opacity=".45"/>
      <path d="M1020.6 47.2L1005.8 61.4" stroke="#315f50" stroke-width="15" opacity=".45"/>
      <path d="M1005.8 61.4L984.6 81.4" stroke="#315f50" stroke-width="15" opacity=".45"/>
      <path d="M984.6 81.4L979.1 89.3L974.7 92.2L973.5 98.3" stroke="#315f50" stroke-width="15" opacity=".45"/>
      <path d="M973.5 98.3L974.3 100.3" stroke="#315f50" stroke-width="15" opacity=".45"/>
      <path d="M974.3 100.3L976.1 102.8L977.6 111.1" stroke="#315f50" stroke-width="15" opacity=".45"/>
      <path d="M974.3 143.6L971.5 146.8" stroke="#315f50" stroke-width="15" opacity=".45"/>
      <path d="M971.5 146.8L966.9 150.7L964.2 154.7" stroke="#315f50" stroke-width="15" opacity=".45"/>
      <path d="M964.2 154.7L961.8 157.2" stroke="#315f50" stroke-width="15" opacity=".45"/>
      <path d="M961.8 157.2L954.2 161.7L944.5 162.5L938.4 164.9L927.4 164.9L922.2 159.5" stroke="#315f50" stroke-width="15" opacity=".45"/>
      <path d="M922.2 159.5L919.1 155.1L911.6 151.5L902.4 152" stroke="#315f50" stroke-width="15" opacity=".45"/>
      <path d="M902.4 152L896.5 156.8L896.7 160.3L899.3 164" stroke="#315f50" stroke-width="15" opacity=".45"/>
      <path d="M899.3 164L899.6 164.4" stroke="#315f50" stroke-width="15" opacity=".45"/>
      <path d="M899.6 164.4L901.5 167.3L901.4 170.3" stroke="#315f50" stroke-width="15" opacity=".45"/>
      <path d="M901.4 170.3L900.1 172.8L895.3 175.4" stroke="#315f50" stroke-width="15" opacity=".45"/>
      <path d="M895.3 175.4L892.2 178.4L890.1 185L887.4 188L886.9 190.5L888.5 193.7" stroke="#315f50" stroke-width="15" opacity=".45"/>
      <path d="M883.2 207.2L883.1 207.5" stroke="#315f50" stroke-width="15" opacity=".45"/>
      <path d="M883.1 207.5L875.9 214.8L871.2 214.3" stroke="#315f50" stroke-width="15" opacity=".45"/>
      <path d="M871.2 214.3L862.8 213.3L853.6 224.3" stroke="#315f50" stroke-width="15" opacity=".45"/>
      <path d="M853.6 224.3L845.3 230" stroke="#315f50" stroke-width="15" opacity=".45"/>
      <path d="M837.8 233L828.7 234.1L810.2 231L804.4 233.4" stroke="#315f50" stroke-width="15" opacity=".45"/>
      <path d="M799.2 248.8L798.2 251.6L795.9 252L782.1 244.4" stroke="#315f50" stroke-width="15" opacity=".45"/>
      <path d="M782.1 244.4L781.5 244.3" stroke="#315f50" stroke-width="15" opacity=".45"/>
      <path d="M781.5 244.3L775 243.9L766.7 247.3L764.8 251.1L766 255.1" stroke="#315f50" stroke-width="15" opacity=".45"/>
      <path d="M766 255.1L768.3 257.4L778.2 262.5" stroke="#315f50" stroke-width="15" opacity=".45"/>
      <path d="M778.2 262.5L781.1 266.1L780.3 269.4L768.5 278.7" stroke="#315f50" stroke-width="15" opacity=".45"/>
      <path d="M762.9 284L762.2 285.2" stroke="#315f50" stroke-width="15" opacity=".45"/>
      <path d="M762.2 285.2L762.2 287.9" stroke="#315f50" stroke-width="15" opacity=".45"/>
      <path d="M762 289.8L760.8 294.5L744.7 303.9L743.6 307.1L743.9 311.6" stroke="#315f50" stroke-width="15" opacity=".45"/>
      <path d="M743.9 311.6L749.8 325.2L743.1 327.5L732.9 328.4" stroke="#315f50" stroke-width="15" opacity=".45"/>
      <path d="M732.9 328.4L724.1 335.1" stroke="#315f50" stroke-width="15" opacity=".45"/>
      <path d="M724.1 335.1L721.9 336.5L716.6 336.1" stroke="#315f50" stroke-width="15" opacity=".45"/>
      <path d="M716.6 336.1L710.5 334.2L702.4 337.8" stroke="#315f50" stroke-width="15" opacity=".45"/>
      <path d="M702.4 337.8L698.7 341.4" stroke="#315f50" stroke-width="15" opacity=".45"/>
      <path d="M698.7 341.4L694.5 346.3" stroke="#315f50" stroke-width="15" opacity=".45"/>
      <path d="M694.5 346.3L691.8 353.7" stroke="#315f50" stroke-width="15" opacity=".45"/>
      <path d="M691.8 353.7L687.4 357.7" stroke="#315f50" stroke-width="15" opacity=".45"/>
      <path d="M687.4 357.7L685.9 361" stroke="#315f50" stroke-width="15" opacity=".45"/>
      <path d="M685.9 361L681.8 363.5L682.8 366.5" stroke="#315f50" stroke-width="15" opacity=".45"/>
      <path d="M682.8 366.5L691.1 366.2L700.1 367.6L706.1 370.8L706.7 375.5L704.6 379.4L696.8 387.6L691.5 390" stroke="#315f50" stroke-width="15" opacity=".45"/>
      <path d="M691.5 390L689 391.8L690.4 394L696.2 396.3L702.7 396.3" stroke="#315f50" stroke-width="15" opacity=".45"/>
      <path d="M702.7 396.3L705.5 395.8" stroke="#315f50" stroke-width="15" opacity=".45"/>
      <path d="M705.5 395.8L708.2 397.9L708.5 406.2" stroke="#315f50" stroke-width="15" opacity=".45"/>
      <path d="M708.5 406.2L706.2 417.6L710.5 427.1" stroke="#315f50" stroke-width="15" opacity=".45"/>
      <path d="M710.5 427.1L710.6 428.4" stroke="#315f50" stroke-width="15" opacity=".45"/>
      <path d="M710.6 428.4L711.9 437.2" stroke="#315f50" stroke-width="15" opacity=".45"/>
      <path d="M711.9 437.2L714.2 451.2" stroke="#315f50" stroke-width="15" opacity=".45"/>
      <path d="M984.8 136.2L979.4 137.6L974.3 143.6" stroke="#315f50" stroke-width="15" opacity=".45"/>
      <path d="M977.6 111.1L977.4 113.5L980.7 118.5L982.1 124.3L985.1 127.6" stroke="#315f50" stroke-width="15" opacity=".45"/>
      <path d="M985.1 127.6L988.4 133.4L987.9 134.8L984.8 136.2" stroke="#315f50" stroke-width="15" opacity=".45"/>
      <path d="M804 233.7L801.8 239.1" stroke="#315f50" stroke-width="15" opacity=".45"/>
      <path d="M804.4 233.4L804 233.7" stroke="#315f50" stroke-width="15" opacity=".45"/>
      <path d="M888.5 193.7L888.2 198.1L883.2 207.2" stroke="#315f50" stroke-width="15" opacity=".45"/>
      <path d="M801.8 239.1L799.2 248.8" stroke="#315f50" stroke-width="15" opacity=".45"/>
      <path d="M768.5 278.7L765.3 279.9L762.9 284" stroke="#315f50" stroke-width="15" opacity=".45"/>
      <path d="M762.2 287.9L762 289.8" stroke="#315f50" stroke-width="15" opacity=".45"/>
      <path d="M845.3 230L838.2 232.9" stroke="#315f50" stroke-width="15" opacity=".45"/>
      <path d="M838.2 232.9L837.8 233" stroke="#315f50" stroke-width="15" opacity=".45"/>
      <path d="M864.8 370.4L864.4 373.4" stroke="#315f50" stroke-width="15" opacity=".45"/>
      <path d="M996.8 111.7L1000.4 109.3L1006.7 111.1L1018.2 111.4L1025.4 109.8L1037.2 112L1048 118" stroke="#315f50" stroke-width="15" opacity=".45"/>
      <path d="M886.6 321.5L890.4 328.5L889.5 334.7L880.7 340.7L874.2 352L869.5 354.8L869 360.8L864.9 369.6" stroke="#315f50" stroke-width="15" opacity=".45"/>
      <path d="M864.9 369.6L864.8 370.4" stroke="#315f50" stroke-width="15" opacity=".45"/>
      <path d="M886.6 321.5L886 320.5" stroke="#315f50" stroke-width="15" opacity=".45"/>
      <path d="M886 320.5L884.7 317.7L885.6 310.3" stroke="#315f50" stroke-width="15" opacity=".45"/>
      <path d="M872.1 310.8L874.8 309.1L871.8 300.2L873.4 295.5" stroke="#315f50" stroke-width="15" opacity=".45"/>
      <path d="M873.4 295.5L875.2 289" stroke="#315f50" stroke-width="15" opacity=".45"/>
      <path d="M875.2 289L876.1 286.3L880.5 284.4L880.6 282.9" stroke="#315f50" stroke-width="15" opacity=".45"/>
      <path d="M880.6 282.9L879.3 278.1L882.9 273.3" stroke="#315f50" stroke-width="15" opacity=".45"/>
      <path d="M879.1 239.1L879.6 237.9" stroke="#315f50" stroke-width="15" opacity=".45"/>
      <path d="M879.6 237.9L882.2 232.1L882.3 226.1L894.3 206.2L896.5 198.6" stroke="#315f50" stroke-width="15" opacity=".45"/>
      <path d="M896.5 198.6L895.8 196.8" stroke="#315f50" stroke-width="15" opacity=".45"/>
      <path d="M895.8 196.8L895.8 191.5" stroke="#315f50" stroke-width="15" opacity=".45"/>
      <path d="M1066.4 122.7L1071.3 124.7" stroke="#315f50" stroke-width="15" opacity=".45"/>
      <path d="M1071.3 124.7L1075.9 131.4L1080.4 134.1L1086.3 135.4L1092.3 140.7L1096.8 142.5" stroke="#315f50" stroke-width="15" opacity=".45"/>
      <path d="M1096.8 142.5L1097.7 142.8" stroke="#315f50" stroke-width="15" opacity=".45"/>
      <path d="M1097.7 142.8L1126 146.2L1133.4 145.4" stroke="#315f50" stroke-width="15" opacity=".45"/>
      <path d="M987.9 142.9L992.2 141.3L994.1 139.3L995.7 133.1L994 129.8L992.2 118.5L996.8 111.7" stroke="#315f50" stroke-width="15" opacity=".45"/>
      <path d="M885.5 312.6L883.8 312.7" stroke="#315f50" stroke-width="15" opacity=".45"/>
      <path d="M885.5 308.7L884.9 294.8L882.9 286.8" stroke="#315f50" stroke-width="15" opacity=".45"/>
      <path d="M885.5 309L885.5 308.7" stroke="#315f50" stroke-width="15" opacity=".45"/>
      <path d="M882.4 274.7L882.8 272.4L879.5 269.1L880.9 262.7L878.4 257.5L873.3 254.8L871.4 251L872.9 243.5L879.1 239.1" stroke="#315f50" stroke-width="15" opacity=".45"/>
      <path d="M882.9 286.8L880.1 279.5L882.4 274.7" stroke="#315f50" stroke-width="15" opacity=".45"/>
      <path d="M885.6 310.3L885.5 309" stroke="#315f50" stroke-width="15" opacity=".45"/>
      <path d="M872.1 311L872.1 310.8" stroke="#315f50" stroke-width="15" opacity=".45"/>
      <path d="M883.8 312.7L875.7 314L872.1 311" stroke="#315f50" stroke-width="15" opacity=".45"/>
      <path d="M1048.4 118.1L1066.4 122.7" stroke="#315f50" stroke-width="15" opacity=".45"/>
      <path d="M1048 118L1048.4 118.1" stroke="#315f50" stroke-width="15" opacity=".45"/>
      <path d="M1133.7 145.3L1140.2 143.6L1159.5 142.9" stroke="#315f50" stroke-width="15" opacity=".45"/>
      <path d="M1133.4 145.4L1133.7 145.3" stroke="#315f50" stroke-width="15" opacity=".45"/>
      <path d="M625.7 464.8L624.1 459.4" stroke="#315f50" stroke-width="15" opacity=".45"/>
      <path d="M425.5 178L426.6 175.2" stroke="#315f50" stroke-width="15" opacity=".45"/>
      <path d="M436.2 165.7L439.5 160.7L439.9 157.3L445 150.9L442.7 146.2" stroke="#315f50" stroke-width="15" opacity=".45"/>
      <path d="M485 329.4L485.3 337.4L478.5 338.3L476.6 337.5L471.5 331L479.9 332L481.1 329.6L479.9 328.6L475.8 328.6L470 325.4L467.7 321.4L468.3 319.4L466.9 316.7L467.1 315.4L470.5 314.3L474.3 319.8L474.2 322L475.8 321.7L471.9 315.5L473.2 311.8L470.3 310L467.1 312.3L460.1 310.2L461.7 309.2L466.6 310.6L470.8 308.1L479.5 312.4L480.4 311.2L478.4 304.9L482.6 304L485.2 296.2L488.9 297L490.6 303.9L492.8 298.8L494.9 300.4L497.3 300.2L498.4 301.8L498.2 304.9L500.8 307.4L498.6 299.6L492.9 296.3L494.9 292.6L488 292.9L487.1 286L481.6 289.7L457.7 289.7L470 287.4L471 285.9L470.9 281.9L475.3 280.6L475.3 279.6L468 282.6L461.8 282.4L458 280.8L449.7 283L456 278.8L461.1 278.3L464.4 276L467.6 275.8L477.2 271.7L478.1 268.1L486.6 267.8L488.2 265.7L487.6 263.5L490.1 262.6L491.2 256.3L494.3 254.2L489.1 256.7L484.1 264.6L480.4 264.5L474.3 260.9L476.1 259.7L480.8 261.6L482.8 260.3L482.9 256.1L479.3 253.5L478.1 250.9L482.7 247.4L483.2 245.2L476.3 243.8L473.5 241L474.2 243L473.3 245.2L475.1 246.3L472.7 246L468.6 240.1L472.2 237.1L466.6 239.9L468.5 244.9L463.9 242.7L465.2 237L467.3 234.5L464.9 229.7L464.4 225L466.2 221.4L458.5 218.7L452.2 210.5L448.1 208.8L444.7 201L441 198.4L440.2 195.4L436.3 194.9L434.4 196.8L430.5 191.5L426.1 190.2L423.7 184.7L425.3 178.9" stroke="#315f50" stroke-width="15" opacity=".45"/>
      <path d="M624.1 459.4L623.4 457.4" stroke="#315f50" stroke-width="15" opacity=".45"/>
      <path d="M442.7 145.3L440.3 142.3L444.8 139.2L447.7 135.1L453.8 133.2L457.1 129L462.3 125.5L467.6 124.6L470.9 120.1L468.3 120.1L467.3 122.6L464.8 121.2L457.9 124.2L455.6 122.3L453.4 122.9L453.1 121.5L455 120.7L458.5 122.3L459.8 119L463.1 117.1L465.7 118L467.3 117.3L471.1 113.2L472.9 107.8L475.2 104.6L479 105.8L489.9 103.2L495.3 103.6L496.8 105L499.7 102.8L506.7 103.9L508.2 99L511.2 99.4L520.7 94.1L523.3 95.4L523 98.7L526.1 100.7L527.5 103.7L534.4 99.4L538.3 100.1L534.1 98L529.7 99.8L527 96.5L527.9 94.2L526 90.4L522.5 88.4L522.6 85.9L521.4 85.1L518.1 86.1L520.7 80.9L525.5 80.1L526.8 80.8L526.2 83.1L527.9 84.7L531.5 83.7L532.8 85.7L535.9 82L538.4 84.6L540.7 79L544.8 74.1L549.2 59.8L545.4 50.6L544.4 43.1L551.6 18.1" stroke="#315f50" stroke-width="15" opacity=".45"/>
      <path d="M427.6 174.3L428.1 173.9" stroke="#315f50" stroke-width="15" opacity=".45"/>
      <path d="M426.6 175.2L427.6 174.3" stroke="#315f50" stroke-width="15" opacity=".45"/>
      <path d="M425.3 178.9L425.5 178" stroke="#315f50" stroke-width="15" opacity=".45"/>
      <path d="M442.7 146.2L442.7 145.3" stroke="#315f50" stroke-width="15" opacity=".45"/>
      <path d="M561.1 375.8L561.1 374.6L558.4 373.1L561.6 372.8L562.5 371L566.8 374.2L572.6 373.1L571.8 375.3L577.3 371.3L572.9 369.4L570 370L566.6 367L569.6 363.2L567.8 360.7L569 359L566.4 360.1L564.7 362.6L561.6 362.5L557.3 365.4L552.4 365.5L550.4 361.4L545 358.8L542.8 356.3L539.5 346.3L532.7 343.3L531.3 341.2L530.5 343.3L528.2 344.2L521 341.9L512.5 342.7L510 339.4L510.2 335.2L507.7 337.2L503.9 336L501.5 337.8L495.5 337.9L486.6 332.6L485.4 329.4" stroke="#315f50" stroke-width="15" opacity=".45"/>
      <path d="M485.4 329.4L485 329.4" stroke="#315f50" stroke-width="15" opacity=".45"/>
      <path d="M574.4 396.9L572.7 387.4L569.6 386.5L569 383.4L564.7 379.4" stroke="#315f50" stroke-width="15" opacity=".45"/>
      <path d="M574.4 397.2L574.4 396.9" stroke="#315f50" stroke-width="15" opacity=".45"/>
      <path d="M564.7 379.4L561.1 375.8" stroke="#315f50" stroke-width="15" opacity=".45"/>
      <path d="M623.4 457.4L614.2 457.7L604.8 454.7L605 453.3L609.2 451.6L608.7 447.5L612.6 447.8L614.6 446.4L613.9 442.2L609.8 437.6L605.5 437.8L604.3 432.5L594.5 426.6L595.9 422.7L595.2 418.1L585.8 417.3L584.8 411.4L575.5 407.9L575.8 406L577.9 404.4L577.5 402.6L573.7 400.4L574.4 397.2" stroke="#315f50" stroke-width="15" opacity=".45"/>
      <path d="M1024.4 38.1L1023.7 43L1020.6 47.2" stroke="#f4d98a" stroke-width="8"/>
      <path d="M1020.6 47.2L1005.8 61.4" stroke="#f4d98a" stroke-width="8"/>
      <path d="M1005.8 61.4L984.6 81.4" stroke="#f4d98a" stroke-width="8"/>
      <path d="M984.6 81.4L979.1 89.3L974.7 92.2L973.5 98.3" stroke="#f4d98a" stroke-width="8"/>
      <path d="M973.5 98.3L974.3 100.3" stroke="#f4d98a" stroke-width="8"/>
      <path d="M974.3 100.3L976.1 102.8L977.6 111.1" stroke="#f4d98a" stroke-width="8"/>
      <path d="M974.3 143.6L971.5 146.8" stroke="#f4d98a" stroke-width="8"/>
      <path d="M971.5 146.8L966.9 150.7L964.2 154.7" stroke="#f4d98a" stroke-width="8"/>
      <path d="M964.2 154.7L961.8 157.2" stroke="#f4d98a" stroke-width="8"/>
      <path d="M961.8 157.2L954.2 161.7L944.5 162.5L938.4 164.9L927.4 164.9L922.2 159.5" stroke="#f4d98a" stroke-width="8"/>
      <path d="M922.2 159.5L919.1 155.1L911.6 151.5L902.4 152" stroke="#f4d98a" stroke-width="8"/>
      <path d="M902.4 152L896.5 156.8L896.7 160.3L899.3 164" stroke="#f4d98a" stroke-width="8"/>
      <path d="M899.3 164L899.6 164.4" stroke="#f4d98a" stroke-width="8"/>
      <path d="M899.6 164.4L901.5 167.3L901.4 170.3" stroke="#f4d98a" stroke-width="8"/>
      <path d="M901.4 170.3L900.1 172.8L895.3 175.4" stroke="#f4d98a" stroke-width="8"/>
      <path d="M895.3 175.4L892.2 178.4L890.1 185L887.4 188L886.9 190.5L888.5 193.7" stroke="#f4d98a" stroke-width="8"/>
      <path d="M883.2 207.2L883.1 207.5" stroke="#f4d98a" stroke-width="8"/>
      <path d="M883.1 207.5L875.9 214.8L871.2 214.3" stroke="#f4d98a" stroke-width="8"/>
      <path d="M871.2 214.3L862.8 213.3L853.6 224.3" stroke="#f4d98a" stroke-width="8"/>
      <path d="M853.6 224.3L845.3 230" stroke="#f4d98a" stroke-width="8"/>
      <path d="M837.8 233L828.7 234.1L810.2 231L804.4 233.4" stroke="#f4d98a" stroke-width="8"/>
      <path d="M799.2 248.8L798.2 251.6L795.9 252L782.1 244.4" stroke="#f4d98a" stroke-width="8"/>
      <path d="M782.1 244.4L781.5 244.3" stroke="#f4d98a" stroke-width="8"/>
      <path d="M781.5 244.3L775 243.9L766.7 247.3L764.8 251.1L766 255.1" stroke="#f4d98a" stroke-width="8"/>
      <path d="M766 255.1L768.3 257.4L778.2 262.5" stroke="#f4d98a" stroke-width="8"/>
      <path d="M778.2 262.5L781.1 266.1L780.3 269.4L768.5 278.7" stroke="#f4d98a" stroke-width="8"/>
      <path d="M762.9 284L762.2 285.2" stroke="#f4d98a" stroke-width="8"/>
      <path d="M762.2 285.2L762.2 287.9" stroke="#f4d98a" stroke-width="8"/>
      <path d="M762 289.8L760.8 294.5L744.7 303.9L743.6 307.1L743.9 311.6" stroke="#f4d98a" stroke-width="8"/>
      <path d="M743.9 311.6L749.8 325.2L743.1 327.5L732.9 328.4" stroke="#f4d98a" stroke-width="8"/>
      <path d="M732.9 328.4L724.1 335.1" stroke="#f4d98a" stroke-width="8"/>
      <path d="M724.1 335.1L721.9 336.5L716.6 336.1" stroke="#f4d98a" stroke-width="8"/>
      <path d="M716.6 336.1L710.5 334.2L702.4 337.8" stroke="#f4d98a" stroke-width="8"/>
      <path d="M702.4 337.8L698.7 341.4" stroke="#f4d98a" stroke-width="8"/>
      <path d="M698.7 341.4L694.5 346.3" stroke="#f4d98a" stroke-width="8"/>
      <path d="M694.5 346.3L691.8 353.7" stroke="#f4d98a" stroke-width="8"/>
      <path d="M691.8 353.7L687.4 357.7" stroke="#f4d98a" stroke-width="8"/>
      <path d="M687.4 357.7L685.9 361" stroke="#f4d98a" stroke-width="8"/>
      <path d="M685.9 361L681.8 363.5L682.8 366.5" stroke="#f4d98a" stroke-width="8"/>
      <path d="M682.8 366.5L691.1 366.2L700.1 367.6L706.1 370.8L706.7 375.5L704.6 379.4L696.8 387.6L691.5 390" stroke="#f4d98a" stroke-width="8"/>
      <path d="M691.5 390L689 391.8L690.4 394L696.2 396.3L702.7 396.3" stroke="#f4d98a" stroke-width="8"/>
      <path d="M702.7 396.3L705.5 395.8" stroke="#f4d98a" stroke-width="8"/>
      <path d="M705.5 395.8L708.2 397.9L708.5 406.2" stroke="#f4d98a" stroke-width="8"/>
      <path d="M708.5 406.2L706.2 417.6L710.5 427.1" stroke="#f4d98a" stroke-width="8"/>
      <path d="M710.5 427.1L710.6 428.4" stroke="#f4d98a" stroke-width="8"/>
      <path d="M710.6 428.4L711.9 437.2" stroke="#f4d98a" stroke-width="8"/>
      <path d="M711.9 437.2L714.2 451.2" stroke="#f4d98a" stroke-width="8"/>
      <path d="M984.8 136.2L979.4 137.6L974.3 143.6" stroke="#f4d98a" stroke-width="8"/>
      <path d="M977.6 111.1L977.4 113.5L980.7 118.5L982.1 124.3L985.1 127.6" stroke="#f4d98a" stroke-width="8"/>
      <path d="M985.1 127.6L988.4 133.4L987.9 134.8L984.8 136.2" stroke="#f4d98a" stroke-width="8"/>
      <path d="M804 233.7L801.8 239.1" stroke="#f4d98a" stroke-width="8"/>
      <path d="M804.4 233.4L804 233.7" stroke="#f4d98a" stroke-width="8"/>
      <path d="M888.5 193.7L888.2 198.1L883.2 207.2" stroke="#f4d98a" stroke-width="8"/>
      <path d="M801.8 239.1L799.2 248.8" stroke="#f4d98a" stroke-width="8"/>
      <path d="M768.5 278.7L765.3 279.9L762.9 284" stroke="#f4d98a" stroke-width="8"/>
      <path d="M762.2 287.9L762 289.8" stroke="#f4d98a" stroke-width="8"/>
      <path d="M845.3 230L838.2 232.9" stroke="#f4d98a" stroke-width="8"/>
      <path d="M838.2 232.9L837.8 233" stroke="#f4d98a" stroke-width="8"/>
      <path d="M864.8 370.4L864.4 373.4" stroke="#f4d98a" stroke-width="8"/>
      <path d="M996.8 111.7L1000.4 109.3L1006.7 111.1L1018.2 111.4L1025.4 109.8L1037.2 112L1048 118" stroke="#f4d98a" stroke-width="8"/>
      <path d="M886.6 321.5L890.4 328.5L889.5 334.7L880.7 340.7L874.2 352L869.5 354.8L869 360.8L864.9 369.6" stroke="#f4d98a" stroke-width="8"/>
      <path d="M864.9 369.6L864.8 370.4" stroke="#f4d98a" stroke-width="8"/>
      <path d="M886.6 321.5L886 320.5" stroke="#f4d98a" stroke-width="8"/>
      <path d="M886 320.5L884.7 317.7L885.6 310.3" stroke="#f4d98a" stroke-width="8"/>
      <path d="M872.1 310.8L874.8 309.1L871.8 300.2L873.4 295.5" stroke="#f4d98a" stroke-width="8"/>
      <path d="M873.4 295.5L875.2 289" stroke="#f4d98a" stroke-width="8"/>
      <path d="M875.2 289L876.1 286.3L880.5 284.4L880.6 282.9" stroke="#f4d98a" stroke-width="8"/>
      <path d="M880.6 282.9L879.3 278.1L882.9 273.3" stroke="#f4d98a" stroke-width="8"/>
      <path d="M879.1 239.1L879.6 237.9" stroke="#f4d98a" stroke-width="8"/>
      <path d="M879.6 237.9L882.2 232.1L882.3 226.1L894.3 206.2L896.5 198.6" stroke="#f4d98a" stroke-width="8"/>
      <path d="M896.5 198.6L895.8 196.8" stroke="#f4d98a" stroke-width="8"/>
      <path d="M895.8 196.8L895.8 191.5" stroke="#f4d98a" stroke-width="8"/>
      <path d="M1066.4 122.7L1071.3 124.7" stroke="#f4d98a" stroke-width="8"/>
      <path d="M1071.3 124.7L1075.9 131.4L1080.4 134.1L1086.3 135.4L1092.3 140.7L1096.8 142.5" stroke="#f4d98a" stroke-width="8"/>
      <path d="M1096.8 142.5L1097.7 142.8" stroke="#f4d98a" stroke-width="8"/>
      <path d="M1097.7 142.8L1126 146.2L1133.4 145.4" stroke="#f4d98a" stroke-width="8"/>
      <path d="M987.9 142.9L992.2 141.3L994.1 139.3L995.7 133.1L994 129.8L992.2 118.5L996.8 111.7" stroke="#f4d98a" stroke-width="8"/>
      <path d="M885.5 312.6L883.8 312.7" stroke="#f4d98a" stroke-width="8"/>
      <path d="M885.5 308.7L884.9 294.8L882.9 286.8" stroke="#f4d98a" stroke-width="8"/>
      <path d="M885.5 309L885.5 308.7" stroke="#f4d98a" stroke-width="8"/>
      <path d="M882.4 274.7L882.8 272.4L879.5 269.1L880.9 262.7L878.4 257.5L873.3 254.8L871.4 251L872.9 243.5L879.1 239.1" stroke="#f4d98a" stroke-width="8"/>
      <path d="M882.9 286.8L880.1 279.5L882.4 274.7" stroke="#f4d98a" stroke-width="8"/>
      <path d="M885.6 310.3L885.5 309" stroke="#f4d98a" stroke-width="8"/>
      <path d="M872.1 311L872.1 310.8" stroke="#f4d98a" stroke-width="8"/>
      <path d="M883.8 312.7L875.7 314L872.1 311" stroke="#f4d98a" stroke-width="8"/>
      <path d="M1048.4 118.1L1066.4 122.7" stroke="#f4d98a" stroke-width="8"/>
      <path d="M1048 118L1048.4 118.1" stroke="#f4d98a" stroke-width="8"/>
      <path d="M1133.7 145.3L1140.2 143.6L1159.5 142.9" stroke="#f4d98a" stroke-width="8"/>
      <path d="M1133.4 145.4L1133.7 145.3" stroke="#f4d98a" stroke-width="8"/>
      <path d="M625.7 464.8L624.1 459.4" stroke="#f4d98a" stroke-width="8"/>
      <path d="M425.5 178L426.6 175.2" stroke="#f4d98a" stroke-width="8"/>
      <path d="M436.2 165.7L439.5 160.7L439.9 157.3L445 150.9L442.7 146.2" stroke="#f4d98a" stroke-width="8"/>
      <path d="M485 329.4L485.3 337.4L478.5 338.3L476.6 337.5L471.5 331L479.9 332L481.1 329.6L479.9 328.6L475.8 328.6L470 325.4L467.7 321.4L468.3 319.4L466.9 316.7L467.1 315.4L470.5 314.3L474.3 319.8L474.2 322L475.8 321.7L471.9 315.5L473.2 311.8L470.3 310L467.1 312.3L460.1 310.2L461.7 309.2L466.6 310.6L470.8 308.1L479.5 312.4L480.4 311.2L478.4 304.9L482.6 304L485.2 296.2L488.9 297L490.6 303.9L492.8 298.8L494.9 300.4L497.3 300.2L498.4 301.8L498.2 304.9L500.8 307.4L498.6 299.6L492.9 296.3L494.9 292.6L488 292.9L487.1 286L481.6 289.7L457.7 289.7L470 287.4L471 285.9L470.9 281.9L475.3 280.6L475.3 279.6L468 282.6L461.8 282.4L458 280.8L449.7 283L456 278.8L461.1 278.3L464.4 276L467.6 275.8L477.2 271.7L478.1 268.1L486.6 267.8L488.2 265.7L487.6 263.5L490.1 262.6L491.2 256.3L494.3 254.2L489.1 256.7L484.1 264.6L480.4 264.5L474.3 260.9L476.1 259.7L480.8 261.6L482.8 260.3L482.9 256.1L479.3 253.5L478.1 250.9L482.7 247.4L483.2 245.2L476.3 243.8L473.5 241L474.2 243L473.3 245.2L475.1 246.3L472.7 246L468.6 240.1L472.2 237.1L466.6 239.9L468.5 244.9L463.9 242.7L465.2 237L467.3 234.5L464.9 229.7L464.4 225L466.2 221.4L458.5 218.7L452.2 210.5L448.1 208.8L444.7 201L441 198.4L440.2 195.4L436.3 194.9L434.4 196.8L430.5 191.5L426.1 190.2L423.7 184.7L425.3 178.9" stroke="#f4d98a" stroke-width="8"/>
      <path d="M624.1 459.4L623.4 457.4" stroke="#f4d98a" stroke-width="8"/>
      <path d="M442.7 145.3L440.3 142.3L444.8 139.2L447.7 135.1L453.8 133.2L457.1 129L462.3 125.5L467.6 124.6L470.9 120.1L468.3 120.1L467.3 122.6L464.8 121.2L457.9 124.2L455.6 122.3L453.4 122.9L453.1 121.5L455 120.7L458.5 122.3L459.8 119L463.1 117.1L465.7 118L467.3 117.3L471.1 113.2L472.9 107.8L475.2 104.6L479 105.8L489.9 103.2L495.3 103.6L496.8 105L499.7 102.8L506.7 103.9L508.2 99L511.2 99.4L520.7 94.1L523.3 95.4L523 98.7L526.1 100.7L527.5 103.7L534.4 99.4L538.3 100.1L534.1 98L529.7 99.8L527 96.5L527.9 94.2L526 90.4L522.5 88.4L522.6 85.9L521.4 85.1L518.1 86.1L520.7 80.9L525.5 80.1L526.8 80.8L526.2 83.1L527.9 84.7L531.5 83.7L532.8 85.7L535.9 82L538.4 84.6L540.7 79L544.8 74.1L549.2 59.8L545.4 50.6L544.4 43.1L551.6 18.1" stroke="#f4d98a" stroke-width="8"/>
      <path d="M427.6 174.3L428.1 173.9" stroke="#f4d98a" stroke-width="8"/>
      <path d="M426.6 175.2L427.6 174.3" stroke="#f4d98a" stroke-width="8"/>
      <path d="M425.3 178.9L425.5 178" stroke="#f4d98a" stroke-width="8"/>
      <path d="M442.7 146.2L442.7 145.3" stroke="#f4d98a" stroke-width="8"/>
      <path d="M561.1 375.8L561.1 374.6L558.4 373.1L561.6 372.8L562.5 371L566.8 374.2L572.6 373.1L571.8 375.3L577.3 371.3L572.9 369.4L570 370L566.6 367L569.6 363.2L567.8 360.7L569 359L566.4 360.1L564.7 362.6L561.6 362.5L557.3 365.4L552.4 365.5L550.4 361.4L545 358.8L542.8 356.3L539.5 346.3L532.7 343.3L531.3 341.2L530.5 343.3L528.2 344.2L521 341.9L512.5 342.7L510 339.4L510.2 335.2L507.7 337.2L503.9 336L501.5 337.8L495.5 337.9L486.6 332.6L485.4 329.4" stroke="#f4d98a" stroke-width="8"/>
      <path d="M485.4 329.4L485 329.4" stroke="#f4d98a" stroke-width="8"/>
      <path d="M574.4 396.9L572.7 387.4L569.6 386.5L569 383.4L564.7 379.4" stroke="#f4d98a" stroke-width="8"/>
      <path d="M574.4 397.2L574.4 396.9" stroke="#f4d98a" stroke-width="8"/>
      <path d="M564.7 379.4L561.1 375.8" stroke="#f4d98a" stroke-width="8"/>
      <path d="M623.4 457.4L614.2 457.7L604.8 454.7L605 453.3L609.2 451.6L608.7 447.5L612.6 447.8L614.6 446.4L613.9 442.2L609.8 437.6L605.5 437.8L604.3 432.5L594.5 426.6L595.9 422.7L595.2 418.1L585.8 417.3L584.8 411.4L575.5 407.9L575.8 406L577.9 404.4L577.5 402.6L573.7 400.4L574.4 397.2" stroke="#f4d98a" stroke-width="8"/>
    </g>

    <g class="peaks">
      <g opacity=".82">
        <use href="#peak" x="83.3" y="655.9" width="122" height="90.3"/>
        <text x="144.3" y="656.4" fill="#edf4d2" stroke="#285846" stroke-width="5" paint-order="stroke" font-family="system-ui, -apple-system, sans-serif" font-size="15" font-weight="800" text-anchor="middle">西砥石権現</text>
      </g>
      <g opacity=".82">
        <use href="#peak" x="189" y="622.6" width="122" height="90.3"/>
        <text x="250" y="623.1" fill="#edf4d2" stroke="#285846" stroke-width="5" paint-order="stroke" font-family="system-ui, -apple-system, sans-serif" font-size="15" font-weight="800" text-anchor="middle">砥石権現</text>
      </g>
      <g opacity=".82">
        <use href="#peak" x="399.9" y="326.5" width="112.9" height="83.5"/>
        <text x="456.3" y="326.4" fill="#edf4d2" stroke="#285846" stroke-width="5" paint-order="stroke" font-family="system-ui, -apple-system, sans-serif" font-size="15" font-weight="800" text-anchor="middle">焼山寺山</text>
      </g>
      <g opacity=".82">
        <use href="#peak" x="787.8" y="212.6" width="92.1" height="68.2"/>
        <text x="833.8" y="211" fill="#edf4d2" stroke="#285846" stroke-width="5" paint-order="stroke" font-family="system-ui, -apple-system, sans-serif" font-size="15" font-weight="800" text-anchor="middle">須賀山</text>
      </g>
      <g opacity=".58">
        <use href="#peak" x="619.7" y="111.1" width="88.3" height="65.3"/>
        
      </g>
    </g>

    <g class="districts" font-family="system-ui, -apple-system, sans-serif" text-anchor="middle">
      <text x="893.4" y="195" fill="#fff7df" stroke="#255541" stroke-width="6" paint-order="stroke" font-size="24" font-weight="850" letter-spacing="3">阿野</text>
      <text x="917.8" y="312.8" fill="#fff7df" stroke="#255541" stroke-width="6" paint-order="stroke" font-size="24" font-weight="850" letter-spacing="3">鬼籠野</text>
      <text x="735.5" y="427.7" fill="#fff7df" stroke="#255541" stroke-width="6" paint-order="stroke" font-size="24" font-weight="850" letter-spacing="3">神領</text>
      <text x="242.9" y="526" fill="#fff7df" stroke="#255541" stroke-width="6" paint-order="stroke" font-size="24" font-weight="850" letter-spacing="3">上分</text>
      <text x="511.7" y="425.6" fill="#fff7df" stroke="#255541" stroke-width="6" paint-order="stroke" font-size="24" font-weight="850" letter-spacing="3">下分</text>
    </g>

    <g class="route-labels" font-family="system-ui, -apple-system, sans-serif" text-anchor="middle">
      <g transform="translate(387.3 495.8)">
        <rect width="64" height="34" rx="17" fill="#fff8e8" stroke="#244f40" stroke-width="3"/>
        <text x="32" y="23" fill="#244f40" font-size="16" font-weight="850">438</text>
      </g>
      <g transform="translate(238.5 374.4)">
        <rect width="64" height="34" rx="17" fill="#fff8e8" stroke="#244f40" stroke-width="3"/>
        <text x="32" y="23" fill="#244f40" font-size="16" font-weight="850">193</text>
      </g>
      <g transform="translate(680.1 352.8)">
        <rect width="52" height="34" rx="17" fill="#fff8e8" stroke="#244f40" stroke-width="3"/>
        <text x="26" y="23" fill="#244f40" font-size="16" font-weight="850">20</text>
      </g>
      <g transform="translate(850.3 329.7)">
        <rect width="52" height="34" rx="17" fill="#fff8e8" stroke="#244f40" stroke-width="3"/>
        <text x="26" y="23" fill="#244f40" font-size="16" font-weight="850">21</text>
      </g>
      <g transform="translate(505.3 323.2)">
        <rect width="52" height="34" rx="17" fill="#fff8e8" stroke="#244f40" stroke-width="3"/>
        <text x="26" y="23" fill="#244f40" font-size="16" font-weight="850">43</text>
      </g>
    </g>

    <g opacity=".62">
      <use href="#tree" x="876.4" y="231" width="27" height="43"/>
      <use href="#tree" x="934.8" y="348.8" width="27" height="43"/>
      <use href="#tree" x="718.5" y="463.7" width="27" height="43"/>
      <use href="#tree" x="259.9" y="562" width="27" height="43"/>
      <use href="#tree" x="494.7" y="461.6" width="27" height="43"/>
    </g>
  </g>

  <use href="#town-shape" fill="none" stroke="#fff9e9" stroke-width="13"/>
  <g transform="translate(480 735)">
    <rect width="240" height="44" rx="22" fill="#fff9e9"/>
    <text x="120" y="29" fill="#285846" font-family="system-ui, -apple-system, sans-serif" font-size="18" font-weight="850" text-anchor="middle" letter-spacing="5">KAMIYAMA</text>
  </g>
  <text x="1180" y="784" fill="#426553" font-family="system-ui, -apple-system, sans-serif" font-size="11" text-anchor="end" opacity=".72">© OpenStreetMap contributors / simplified illustration</text>
</svg>
